<?xml version="1.0" encoding="utf-8"?>
<!-- Generator: Adobe Illustrator 16.0.0, SVG Export Plug-In . SVG Version: 6.00 Build 0)  -->
<!DOCTYPE svg PUBLIC "-//W3C//DTD SVG 1.1//EN" "http://www.w3.org/Graphics/SVG/1.1/DTD/svg11.dtd">
<svg version="1.1" id="Layer_1" xmlns="http://www.w3.org/2000/svg" xmlns:xlink="http://www.w3.org/1999/xlink" x="0px" y="0px"
	 width="239.335px" height="101.366px" viewBox="0.772 27.082 239.335 101.366"
	 enable-background="new 0.772 27.082 239.335 101.366" xml:space="preserve">
<g>
	<path fill="#FF2380" d="M89.524,86.164c0-3.397,0.041-6.799-0.021-10.197c-0.027-1.478,0.375-2.787,1.058-4.044
		c3.308-6.077,11.04-7.579,16.381-3.159c0.444,0.368,0.613,0.083,0.881-0.121c4.138-3.162,10.533-2.932,14.266,0.532
		c1.66,1.543,2.536,3.419,2.525,5.742c-0.033,7.211-0.011,14.423-0.009,21.634c0,1.1-0.456,1.953-1.403,2.49
		c-0.923,0.523-1.885,0.48-2.787-0.07c-1.005-0.615-1.293-1.594-1.293-2.717c0.011-4.534,0.004-9.067,0.004-13.598
		c0-2.522-0.036-5.047,0.02-7.571c0.023-0.973-0.386-1.616-1.094-2.16c-2.141-1.641-5.65-1.356-7.511,0.59
		c-0.429,0.451-0.632,0.927-0.63,1.576c0.023,7.054,0.019,14.113,0.012,21.167c-0.004,1.98-1.463,3.262-3.284,2.928
		c-1.276-0.236-2.159-1.305-2.185-2.707c-0.027-1.16-0.009-2.318-0.009-3.479c0-5.897-0.011-11.795,0.012-17.69
		c0.007-1.212-0.515-2.13-1.487-2.701c-2.263-1.329-6.23-1.505-7.782,2.26c-0.173,0.418-0.234,0.831-0.234,1.273
		c0.006,7.057,0.006,14.111,0.001,21.166c-0.001,1.291-0.679,2.271-1.824,2.68c-1.092,0.389-2.323,0.027-3.056-0.895
		c-0.418-0.529-0.555-1.135-0.554-1.805C89.53,93.584,89.524,89.873,89.524,86.164z"/>
	<path fill="#00AF1C" d="M56.169,91.731c1.88,2.593,4.881,3.325,7.73,1.931c1.997-0.979,3.361-2.578,4.393-4.511
		c0.524-0.979,1.486-1.465,2.49-1.306c1.044,0.166,1.774,0.853,2.007,1.877c0.108,0.496,0.078,0.992-0.155,1.433
		c-2.017,3.819-4.851,6.716-9.21,7.698c-4.157,0.941-7.672-0.314-10.493-3.479c-3.445-3.871-4.285-8.356-2.771-13.232
		c1.299-4.175,4.484-6.266,8.601-7.049c5.96-1.141,10.25,2.529,12.153,6.205c0.772,1.489,0.344,2.763-1.15,3.546
		c-4.07,2.135-8.143,4.27-12.215,6.408C57.139,91.469,56.71,91.629,56.169,91.731z M54.349,87.548
		c0.365-0.205,0.669-0.385,0.98-0.549c3.16-1.653,6.316-3.317,9.487-4.953c0.476-0.247,0.561-0.389,0.114-0.771
		c-1.969-1.677-4.158-1.969-6.559-1.155c-2.327,0.787-3.635,2.421-4.021,4.81C54.215,85.767,54.215,86.617,54.349,87.548z"/>
	<path fill="#FF2380" d="M135.141,91.729c1.127,2.037,3.875,3.086,6.34,2.414c2.665-0.725,4.377-2.587,5.672-4.906
		c0.898-1.614,2.806-1.922,3.973-0.61c0.688,0.778,0.823,1.711,0.361,2.588c-2,3.797-4.837,6.67-9.167,7.639
		c-4.397,0.986-8.021-0.451-10.839-3.895c-3.53-4.317-4.074-9.128-1.86-14.163c1.5-3.416,4.504-5.031,8.033-5.707
		c5.841-1.114,10.179,2.397,12.191,6.279c0.715,1.388,0.262,2.715-1.125,3.445c-4.005,2.102-8.009,4.203-12.017,6.303
		C136.209,91.375,135.714,91.639,135.141,91.729z M133.305,87.527c0.309-0.177,0.612-0.363,0.924-0.526
		c3.137-1.646,6.271-3.296,9.421-4.915c0.534-0.278,0.638-0.426,0.123-0.86c-1.686-1.416-3.576-1.824-5.691-1.348
		C134.169,80.762,132.66,84.095,133.305,87.527z"/>
	<path fill="#007FC5" d="M160.476,90.905c0,1.623,0.005,3.245,0,4.868c-0.006,1.566-1.111,2.744-2.598,2.783
		c-1.459,0.039-2.603-1.039-2.733-2.58c-0.016-0.18-0.011-0.361-0.011-0.543c0-7.645-0.002-15.296,0-22.942
		c0.001-2.875,1.651-4.985,4.291-5.545c0.564-0.119,1.129-0.041,1.689-0.041c2.602-0.002,5.204-0.017,7.801,0.004
		c1.336,0.013,2.365,0.928,2.518,2.163c0.146,1.194-0.594,2.356-1.746,2.673c-0.341,0.094-0.712,0.102-1.07,0.102
		c-2.009,0.011-4.015,0-6.024,0.006c-1.388,0.004-2.109,0.707-2.113,2.079c-0.008,1.88,0.017,3.759-0.017,5.639
		c-0.011,0.552,0.163,0.682,0.691,0.68c2.602-0.027,5.202-0.025,7.803-0.005c1.225,0.005,2.123,0.734,2.422,1.883
		c0.266,1.039-0.218,2.156-1.165,2.713c-0.416,0.242-0.86,0.305-1.334,0.305c-2.576-0.009-5.151,0.012-7.727-0.018
		c-0.532-0.002-0.705,0.127-0.694,0.679C160.5,87.504,160.476,89.204,160.476,90.905z"/>
	<path fill="#8B8B8B" d="M179.487,38.932c8.77,0.739,16.708,3.388,22.841,10.079c3.503,3.818,5.484,8.397,6.511,13.433
		c0.404,1.995,0.601,4.014,0.72,6.04c0.116,2.007-1.417,3.315-3.16,2.728c-0.96-0.324-1.532-1.08-1.594-2.141
		c-0.167-2.933-0.519-5.834-1.429-8.644c-2.447-7.554-7.59-12.42-14.996-15.02c-2.978-1.046-6.055-1.6-9.21-1.699
		c-1.506-0.046-2.569-1.006-2.569-2.389c-0.006-1.368,1.087-2.381,2.58-2.387C179.282,38.932,179.383,38.932,179.487,38.932z"/>
	<path fill="#00AF1C" d="M31.314,81.608c0-3.991-0.001-7.98,0-11.972c0-1.624,1.033-2.768,2.472-2.754
		c1.461,0.014,2.449,1.13,2.449,2.776c0.001,7.261,0,14.523,0.001,21.784c0,1.808,0.839,2.657,2.626,2.657
		c1.956,0.004,3.915-0.016,5.872,0.01c1.229,0.014,2.165,0.83,2.321,1.959c0.162,1.178-0.493,2.234-1.622,2.557
		c-0.267,0.076-0.558,0.084-0.839,0.086c-2.703,0.006-5.405,0.006-8.108,0.002c-3.054,0-5.173-2.133-5.173-5.207
		C31.314,89.541,31.314,85.575,31.314,81.608z"/>
	<path fill="#00AF1C" d="M76.258,82.104c0-4.198-0.001-8.394,0-12.588c0-1.637,1.068-2.781,2.565-2.765
		c1.471,0.017,2.527,1.147,2.533,2.733c0.007,1.726,0.022,3.449-0.011,5.173c-0.011,0.552,0.09,0.784,0.702,0.735
		c0.794-0.058,1.596-0.025,2.392-0.011c1.173,0.024,2.031,0.913,2.036,2.077c0.004,1.159-0.856,2.062-2.025,2.092
		c-0.847,0.015-1.7,0.014-2.546-0.004c-0.358-0.008-0.557,0.034-0.557,0.484c0.017,4.583,0.014,9.166,0.003,13.75
		c0,0.364,0.111,0.492,0.482,0.484c0.823-0.024,1.649-0.021,2.473-0.006c1.235,0.025,2.141,0.887,2.171,2.047
		c0.033,1.148-0.766,2.104-1.964,2.152c-1.641,0.068-3.297,0.139-4.937-0.041c-1.938-0.211-3.311-1.787-3.317-3.727
		C76.253,90.497,76.258,86.3,76.258,82.104z"/>
	<path fill="#8B8B8B" d="M179.465,48.476c11.466,0.702,18.266,8.411,19.747,17.797c0.141,0.899,0.223,1.827,0.084,2.762
		c-0.198,1.371-1.206,2.325-2.473,2.246c-1.367-0.086-2.336-1.079-2.291-2.504c0.118-3.566-1.202-6.629-3.242-9.44
		c-2.362-3.263-5.691-4.942-9.538-5.755c-1.111-0.236-2.248-0.246-3.36-0.433c-1.024-0.173-1.691-0.893-1.863-1.898
		c-0.175-1.024,0.267-1.989,1.13-2.501C178.229,48.413,178.849,48.472,179.465,48.476z"/>
	<path fill="#007FC5" d="M180.385,87.018c0,3.064,0.006,6.125-0.003,9.191c-0.005,1.266-0.798,2.262-1.966,2.523
		c-1.215,0.271-2.381-0.275-2.91-1.361c-0.185-0.377-0.225-0.779-0.225-1.195c0.003-6.15,0-12.303,0.003-18.456
		c0.003-1.522,1.069-2.636,2.513-2.647c1.474-0.012,2.58,1.125,2.586,2.681C180.392,80.841,180.385,83.929,180.385,87.018z"/>
	<path fill="#8B8B8B" d="M189.703,70.87c0,0.467,0,0.776-0.001,1.083c-0.009,1.49-0.951,2.496-2.339,2.5
		c-1.374,0.005-2.394-1.006-2.414-2.467c-0.017-1.289-0.072-2.569-0.407-3.823c-1.042-3.909-3.864-5.887-7.88-5.407
		c-1.283,0.154-2.623-0.581-2.83-2.082c-0.177-1.285,0.717-2.458,2.14-2.625c5.712-0.672,11.389,1.821,13.219,9.012
		C189.521,68.358,189.745,69.678,189.703,70.87z"/>
	<path fill="#FF2A84" d="M156.302,106.775c-0.655,0.381-1.03,0.943-1.392,1.498c-0.299,0.459-0.662,0.857-1.065,1.211
		c-0.609,0.531-1.159,0.34-1.376-0.439c-0.079-0.285-0.049-0.604-0.245-0.859c-0.693,0.801-1.366,1.598-2.064,2.371
		c-0.315,0.348-0.685,0.625-1.222,0.445c-0.558-0.18-0.61-0.668-0.67-1.111c-0.174-1.273,0.583-2.189,1.298-3.094
		c0.413-0.523,0.945-0.934,1.55-1.248c0.789-0.416,1.008-0.369,1.458,0.402c0.23-0.027,0.168-0.289,0.314-0.391
		c0.199-0.135,0.405-0.264,0.643-0.172c0.252,0.1,0.275,0.35,0.292,0.586c0.019,0.316-0.1,0.602-0.217,0.887
		c-0.243,0.588-0.27,0.924-0.174,1.568c0.051,0.008,0.125,0.039,0.14,0.018c0.821-1.049,1.717-2.014,2.68-2.934
		c0.499-0.479,0.821-0.578,1.23,0.008c0.167,0.246,0.21,0.42,0.292,1.248c0.608-0.617,1.046-1.318,1.751-1.756
		c0.893-0.549,1.567-0.275,1.687,0.771c0.053,0.502,0.208,1.008,0.051,1.529c-0.064,0.217,0.069,0.42,0.238,0.529
		c0.25,0.162,0.379-0.09,0.481-0.24c0.693-1.018,1.649-1.811,2.377-2.793c0.323-0.432,0.566-0.918,0.609-1.477
		c0.021-0.303,0.122-0.564,0.477-0.605c0.334-0.039,0.518,0.178,0.654,0.439c0.495,0.943,0.851,1.924,0.667,3.148
		c0.557-0.35,0.799-0.801,1.123-1.174c0.683-0.793,1.552-1.434,1.986-2.432c0.069-0.164,0.217-0.326,0.421-0.262
		c0.284,0.09,0.465,0.303,0.571,0.588c0.16,0.434-0.075,0.867,0.022,1.393c0.52-0.564,1.015-1.063,1.472-1.598
		c0.319-0.373,0.698-0.578,1.175-0.66c0.54-0.094,0.882,0.166,0.99,0.631c0.158,0.678,0.104,1.363-0.224,2.025
		c0.369,0.225,0.534-0.141,0.708-0.338c0.684-0.766,1.299-1.604,2.114-2.236c0.658-0.512,1.315-1.105,2.272-0.82
		c0.858,0.254,1.494,1.961,1.181,3.057c-0.278,0.965-0.851,1.691-1.679,2.221c-0.468,0.305-0.94,0.664-1.554,0.289
		c-0.623-0.381-1.108-0.84-1.086-1.643c0.003-0.283,0-0.564,0-0.939c-0.627,0.461-1.124,0.975-1.598,1.51
		c-0.853,0.965-1.964,1.512-3.138,1.965c-0.217,0.086-0.408,0.086-0.569-0.076c-0.458-0.482-0.531-0.275-0.634,0.264
		c-0.289,1.512-0.653,3.01-0.985,4.512c-0.03,0.129-0.031,0.268-0.083,0.377c-0.241,0.469-0.38,1.07-1.004,1.164
		c-0.366,0.055-0.924-0.969-0.906-1.572c0.027-1.082,0.448-2.055,0.89-3.01c0.702-1.518,1.416-3.02,1.396-4.742
		c-0.003-0.098,0-0.195,0-0.43c-0.778,0.895-1.481,1.691-2.165,2.502c-0.72,0.85-1.6,1.51-2.511,2.127
		c-0.332,0.227-0.682,0.227-1.001-0.031c-0.254-0.209-0.584-0.398-0.523-0.791c0.057-0.352,0.287-0.609,0.646-0.691
		c0.409-0.096,0.911,0.217,1.198-0.371c0.374-0.758,0.505-1.701,0.217-2.816c-0.62,1.09-1.372,1.898-2.049,2.775
		c-0.392,0.502-0.79,1.002-1.173,1.518c-0.274,0.363-0.559,0.686-1.082,0.549c-0.529-0.141-0.826-0.521-0.95-1.016
		c-0.128-0.5-0.23-1-0.257-1.52c-0.021-0.391-0.137-0.621-0.611-0.277c-0.625,0.455-1.035,1.076-1.475,1.666
		c-0.398,0.537-0.865,1-1.287,1.508c-0.378,0.459-0.719,0.391-0.908-0.162c-0.213-0.619,0.007-1.164,0.334-1.672
		C156.203,107.41,156.383,107.172,156.302,106.775z M179.257,102.582c-1.481,0.408-2.041,2.223-1.801,3.283
		c0.091,0.416,0.263,0.686,0.732,0.5c0.963-0.379,1.63-2.172,1.118-3.082C179.175,103.043,179.326,102.842,179.257,102.582z
		 M170.698,106.404c0.409-0.213,0.782-0.406,1.245-0.244c0.189,0.064,0.341-0.104,0.454-0.24c0.518-0.613,0.888-1.311,1.076-2.094
		c0.036-0.146,0.067-0.336-0.074-0.426c-0.154-0.1-0.331-0.045-0.497,0.061C171.822,104.168,171.08,105.129,170.698,106.404z
		 M152.247,106.807c-1.231-0.117-2.996,1.494-3.032,2.73c-0.006,0.139,0.011,0.264,0.137,0.332c0.164,0.096,0.298-0.029,0.403-0.115
		C150.773,108.936,151.66,108.008,152.247,106.807z M168.096,112.66c0.47-1.088,0.723-2.031,0.641-3.045
		C168.303,110.527,167.875,111.438,168.096,112.66z"/>
	<path fill="#FF2A84" d="M189.198,101.188c-0.39,0.521-0.813,1.025-1.161,1.574c-0.637,1.002-1.427,1.869-2.231,2.725
		c-0.413,0.439-0.908,0.881-1.622,0.523c-0.583-0.295-0.892-1.012-0.706-1.789c0.187-0.789,0.437-1.563,0.699-2.494
		c-0.828,0.467-1.236,1.17-1.836,1.65c-0.287,0.223-0.556,0.838-0.916,0.488c-0.347-0.334,0.071-0.775,0.4-1.092
		c0.624-0.615,1.197-1.273,1.715-1.975c0.587-0.789,1.004-0.703,1.501,0.139c0.478,0.809,0.505,1.494-0.061,2.262
		c-0.246,0.336-0.331,0.795-0.484,1.203c-0.063,0.164-0.168,0.385-0.011,0.5c0.173,0.133,0.39,0.002,0.56-0.109
		c0.595-0.375,1.145-0.813,1.542-1.387c0.969-1.391,1.986-2.748,2.765-4.258c0.183-0.359,0.514-0.824,0.285-1.133
		c-0.258-0.348-0.628,0.145-0.917,0.264c-1.053,0.445-2.202,0.725-3.101,1.477c-0.301,0.252-0.404,0.074-0.526-0.121
		c-0.284-0.457-0.052-1.025,0.565-1.301c1.146-0.51,2.293-1.027,3.465-1.469c0.765-0.287,1.327-0.713,1.583-1.5
		c0.024-0.07,0.032-0.154,0.077-0.219c0.191-0.283,0.279-0.795,0.689-0.713c0.391,0.077,0.379,0.549,0.396,0.91
		c0.007,0.125,0.023,0.248,0.039,0.398c0.615-0.021,1.069-0.408,1.595-0.576c0.179-0.055,0.379-0.246,0.567-0.035
		c0.167,0.184,0.082,0.404-0.012,0.576c-0.234,0.432-0.208,0.982-1.081,0.945c-0.673-0.029-1.578,0.328-1.75,1.326
		c-0.041,0.246-0.154,0.504-0.309,0.697c-0.984,1.227-0.808,2.646-0.694,4.055c0.018,0.232,0.11,0.447,0.29,0.615
		c0.215,0.201,0.331,0.473,0.366,0.75c0.044,0.365,0.201,0.848-0.304,0.986c-0.442,0.123-0.599-0.309-0.75-0.627
		C189.343,103.434,189.268,102.34,189.198,101.188z"/>
	<path fill="#FF2A84" d="M141.116,100.77c-1.073,0.115-1.968,0.615-2.852,1.092c-1,0.539-2.119,0.965-2.635,2.119
		c-0.061,0.129-0.18,0.174-0.323,0.145c-0.207-0.051-0.31-0.227-0.297-0.404c0.035-0.463,0.15-0.857,0.575-1.184
		c2.791-2.143,6.056-3.037,9.425-3.676c0.352-0.066,0.667-0.105,0.839,0.299c0.131,0.297,0.205,0.609-0.029,0.867
		c-0.271,0.305-0.629,0.34-0.988,0.156c-0.873-0.447-1.693,0.053-2.531,0.145c-0.125,0.012-0.286,0.123-0.22,0.256
		c0.273,0.592-0.229,0.9-0.464,1.285c-0.66,1.068-1.081,2.236-1.554,3.389c-0.579,1.408-0.757,2.91-1.128,4.367
		c-0.182,0.703-0.179,1.463-0.089,2.207c0.041,0.338,0.147,0.764-0.339,0.906c-0.443,0.125-0.75-0.127-0.966-0.473
		c-0.441-0.713-0.333-1.537-0.188-2.256c0.383-1.896,0.918-3.766,1.805-5.496C139.794,103.271,140.299,101.961,141.116,100.77z"/>
	<path fill="#007FC5" d="M174.672,69.296c-0.019-1.602,1.198-2.858,2.777-2.879c1.648-0.02,2.918,1.194,2.936,2.808
		c0.02,1.596-1.276,2.91-2.864,2.905C175.949,72.126,174.685,70.87,174.672,69.296z"/>
	<path fill="#FF2C85" d="M197.93,100.232c0.478,0.879-0.105,1.42-0.525,1.969c-0.632,0.83-1.375,1.563-2.309,2.064
		c-1.043,0.559-2.284,0.041-2.611-1.092c-0.14-0.479,0.209-0.881,0.311-1.324c0.306-1.287,0.898-2.398,2.356-2.742
		c0.477-0.111,0.959-0.141,1.246,0.299c0.296,0.467-0.069,0.816-0.375,1.133c-0.722,0.752-1.442,1.512-2.175,2.254
		c-0.189,0.193-0.393,0.381-0.248,0.658c0.17,0.316,0.447,0.127,0.683,0.061c1.11-0.301,1.692-1.281,2.492-1.973
		C197.188,101.178,197.514,100.713,197.93,100.232z M195.367,100.008c-0.913,0.215-1.366,0.723-1.43,1.66
		C194.495,101.137,194.992,100.645,195.367,100.008z"/>
	<path fill="#FF2C85" d="M144.23,107.189c-0.621,0.705-1.239,1.416-1.865,2.115c-0.129,0.143-0.279,0.398-0.499,0.244
		c-0.21-0.143-0.135-0.432-0.063-0.643c0.052-0.166,0.165-0.324,0.297-0.439c0.713-0.635,1.294-1.385,1.88-2.133
		c0.58-0.74,0.992-0.66,1.455,0.137c0.481,0.83,0.543,1.555-0.065,2.33c-0.218,0.277-0.34,0.627-0.394,0.988
		c-0.035,0.236-0.308,0.516-0.027,0.689c0.226,0.135,0.48-0.105,0.695-0.242c0.811-0.531,1.413-1.264,1.945-2.057
		c0.084-0.127,0.129-0.318,0.319-0.268c0.17,0.045,0.165,0.227,0.184,0.381c0.03,0.244-0.021,0.453-0.145,0.66
		c-0.549,0.938-1.32,1.697-2.099,2.43c-0.363,0.344-0.868,0.486-1.344,0.145c-0.523-0.369-0.787-0.898-0.665-1.535
		c0.118-0.602,0.334-1.182,0.492-1.777c0.072-0.264,0.268-0.504,0.169-0.803C144.413,107.338,144.321,107.266,144.23,107.189z"/>
	<path fill="#BBBBBA" d="M64.31,102.26c0.47-0.025,0.866,0.131,1.195,0.451c0.145,0.139,0.341,0.279,0.125,0.51
		c-0.165,0.176-0.321,0.332-0.58,0.111c-0.311-0.26-0.662-0.391-1.067-0.199c-0.19,0.092-0.369,0.188-0.398,0.428
		c-0.037,0.264,0.082,0.443,0.309,0.559c0.409,0.213,0.835,0.398,1.231,0.635c0.689,0.408,0.99,1.109,0.773,1.824
		c-0.219,0.723-0.746,1.074-1.488,1.098c-0.78,0.027-1.581-0.477-1.805-1.09c-0.067-0.186-0.042-0.303,0.125-0.373
		c0.228-0.1,0.472-0.127,0.611,0.121c0.198,0.355,0.525,0.49,0.884,0.547c0.383,0.063,0.741-0.061,0.881-0.449
		c0.131-0.355,0.089-0.736-0.268-0.959c-0.366-0.23-0.77-0.402-1.158-0.604c-0.722-0.385-1.034-0.951-0.848-1.625
		C63.038,102.504,63.64,102.314,64.31,102.26z"/>
	<path fill="#B9B9B8" d="M54.618,104.641c0-0.658,0-1.273,0.002-1.889c0-0.236-0.01-0.488,0.343-0.469
		c0.295,0.014,0.297,0.232,0.297,0.439c0.002,1.445,0.002,2.885,0,4.326c-0.001,0.174,0.038,0.387-0.201,0.443
		c-0.178,0.041-0.363,0.066-0.431-0.178c-0.085-0.293-0.212-0.092-0.325-0.021c-0.964,0.566-1.622,0.5-2.171-0.213
		c-0.562-0.727-0.513-1.822,0.108-2.482c0.601-0.637,1.287-0.637,2.197,0.006C54.456,104.617,54.484,104.613,54.618,104.641z
		 M54.64,105.893c-0.001-0.697-0.433-1.162-1.063-1.148c-0.595,0.014-1.113,0.559-1.108,1.162c0.006,0.604,0.536,1.143,1.123,1.146
		C54.222,107.061,54.645,106.594,54.64,105.893z"/>
	<path fill="#B9B9B8" d="M72.234,106.133c-0.232,0-0.464-0.016-0.697,0.006c-0.188,0.016-0.476-0.121-0.55,0.1
		c-0.095,0.273,0.154,0.471,0.365,0.611c0.458,0.303,0.931,0.289,1.36-0.041c0.225-0.176,0.407-0.203,0.593,0.021
		c0.261,0.307-0.074,0.406-0.222,0.52c-0.745,0.6-1.961,0.412-2.535-0.377c-0.573-0.787-0.345-2.027,0.48-2.596
		c0.755-0.52,1.806-0.277,2.354,0.545c0.208,0.311,0.36,0.672,0.214,1.016c-0.153,0.359-0.539,0.15-0.825,0.191
		C72.595,106.152,72.413,106.133,72.234,106.133z M71.957,105.566c0.241-0.207,0.771,0.176,0.805-0.248
		c0.029-0.365-0.417-0.588-0.856-0.578c-0.408,0.01-0.818,0.236-0.794,0.563C71.15,105.76,71.658,105.383,71.957,105.566z"/>
	<path fill="#B9B9B8" d="M44.642,106.133c0.414,0.928,0.991,1.148,1.752,0.705c0.255-0.146,0.452-0.277,0.648,0.004
		c0.25,0.355-0.14,0.441-0.305,0.561c-0.787,0.563-1.997,0.307-2.516-0.506c-0.544-0.855-0.21-2.133,0.678-2.611
		c0.838-0.445,1.907-0.055,2.33,0.854c0.342,0.736,0.197,0.99-0.593,0.992C46.001,106.137,45.361,106.133,44.642,106.133z
		 M45.652,105.543c0.287-0.143,0.806,0.188,0.839-0.225c0.025-0.363-0.419-0.588-0.859-0.578c-0.403,0.012-0.823,0.236-0.792,0.563
		C44.88,105.76,45.385,105.383,45.652,105.543z"/>
	<path fill="#B9B9B8" d="M38.39,106.133c-0.229,0-0.464-0.02-0.691,0.006c-0.193,0.016-0.476-0.123-0.555,0.1
		c-0.095,0.273,0.158,0.471,0.37,0.611c0.455,0.303,0.927,0.289,1.36-0.041c0.227-0.18,0.404-0.199,0.589,0.021
		c0.259,0.307-0.076,0.406-0.221,0.523c-0.748,0.596-1.958,0.408-2.534-0.383c-0.575-0.785-0.347-2.029,0.478-2.598
		c0.758-0.518,1.812-0.273,2.356,0.551c0.206,0.311,0.363,0.67,0.216,1.016c-0.156,0.355-0.543,0.148-0.827,0.189
		C38.75,106.15,38.57,106.133,38.39,106.133z M38.152,105.564c0.206-0.242,0.73,0.217,0.764-0.268
		c0.024-0.328-0.394-0.549-0.801-0.557c-0.44-0.01-0.88,0.221-0.849,0.584C37.304,105.723,37.823,105.402,38.152,105.564z"/>
	<path fill="#BBBBBA" d="M56.157,105.881c0.011-0.992,0.776-1.764,1.743-1.76c0.917,0.008,1.792,0.855,1.805,1.754
		c0.015,0.895-0.862,1.795-1.754,1.801C56.94,107.686,56.149,106.889,56.157,105.881z M58.96,105.875
		c-0.008-0.584-0.494-1.107-1.043-1.127c-0.563-0.02-1.117,0.57-1.101,1.172c0.017,0.578,0.533,1.129,1.069,1.129
		C58.455,107.053,58.968,106.496,58.96,105.875z"/>
	<path fill="#BBBBBA" d="M79.555,104.121c0.915,0.012,1.784,0.881,1.784,1.777c0,0.902-0.882,1.785-1.777,1.777
		c-1.009-0.006-1.782-0.801-1.769-1.814C77.808,104.879,78.591,104.105,79.555,104.121z M78.451,105.883
		c-0.011,0.572,0.494,1.143,1.027,1.166c0.57,0.031,1.108-0.521,1.117-1.137c0.007-0.615-0.509-1.172-1.086-1.164
		C78.973,104.754,78.459,105.305,78.451,105.883z"/>
	<path fill="#BDBDBC" d="M34.543,105.35c0-0.512-0.024-1.027,0.009-1.537c0.028-0.471-0.134-0.66-0.61-0.621
		c-0.297,0.023-0.657,0.074-0.625-0.428c0.032-0.455,0.378-0.332,0.635-0.34c0.665-0.012,1.332-0.004,2-0.004
		c0.284,0,0.582-0.033,0.575,0.406c-0.007,0.389-0.274,0.402-0.531,0.365c-0.617-0.086-0.724,0.219-0.709,0.758
		c0.038,0.998,0.01,2,0.01,3.002c0,0.283,0.038,0.59-0.408,0.568c-0.398-0.018-0.341-0.305-0.344-0.551
		C34.542,106.428,34.543,105.889,34.543,105.35z"/>
	<path fill="#BDBDBC" d="M48.138,105.895c0-0.309,0.007-0.617-0.001-0.926c-0.021-0.582,0.091-0.959,0.762-0.527
		c0.258,0.168,0.358-0.109,0.521-0.182c0.823-0.375,1.594,0.072,1.632,0.98c0.022,0.59,0.001,1.182,0.006,1.771
		c0,0.277-0.021,0.521-0.396,0.508c-0.397-0.004-0.358-0.281-0.362-0.535c-0.001-0.467-0.006-0.928,0-1.393
		c0.002-0.418-0.081-0.828-0.585-0.816c-0.44,0.016-0.775,0.295-0.805,0.781c-0.031,0.459-0.015,0.922-0.02,1.387
		c0,0.279,0.044,0.59-0.399,0.576c-0.402-0.012-0.351-0.295-0.353-0.545C48.131,106.613,48.138,106.254,48.138,105.895z"/>
	<path fill="#BDBDBC" d="M74.267,105.869c0-0.412-0.001-0.82,0-1.234c0-0.387,0.419-0.467,0.511-0.332
		c0.379,0.561,0.587,0.088,0.859-0.068c0.65-0.365,1.494,0.139,1.533,0.943c0.03,0.615,0.003,1.23,0.008,1.85
		c0.005,0.287-0.036,0.512-0.409,0.492c-0.338-0.012-0.348-0.232-0.348-0.473c0.001-0.467-0.004-0.928,0.001-1.389
		c0.006-0.412-0.024-0.842-0.521-0.881c-0.509-0.039-0.808,0.318-0.862,0.805c-0.05,0.457-0.011,0.926-0.021,1.387
		c-0.002,0.246,0.059,0.537-0.344,0.551c-0.444,0.018-0.409-0.285-0.409-0.574c-0.003-0.355-0.003-0.717-0.003-1.076
		C74.266,105.869,74.266,105.869,74.267,105.869z"/>
	<path fill="#BDBDBC" d="M69.449,105.566c0,0.285,0.022,0.568-0.006,0.85c-0.073,0.721-0.675,1.25-1.415,1.26
		c-0.78,0.02-1.423-0.504-1.483-1.264c-0.044-0.561-0.009-1.131-0.015-1.697c-0.002-0.266,0.076-0.441,0.39-0.441
		c0.324,0.008,0.369,0.201,0.369,0.461c-0.006,0.488,0.012,0.979-0.006,1.467c-0.017,0.502,0.208,0.824,0.695,0.826
		c0.504,0.008,0.704-0.359,0.714-0.828c0.007-0.488,0.006-0.977,0.001-1.465c-0.001-0.26,0.046-0.457,0.37-0.461
		c0.315,0,0.392,0.176,0.387,0.445C69.445,105.002,69.45,105.285,69.449,105.566z"/>
	<path fill="#BBBBBA" d="M82.854,104.121c0.275-0.025,0.511,0.076,0.729,0.211c0.186,0.117,0.338,0.262,0.176,0.498
		c-0.12,0.176-0.266,0.213-0.453,0.08c-0.277-0.199-0.632-0.311-0.775,0.066c-0.135,0.354,0.288,0.416,0.516,0.543
		c0.381,0.211,0.817,0.383,0.916,0.857c0.106,0.529-0.066,0.971-0.593,1.199c-0.532,0.229-1.001,0.1-1.402-0.305
		c-0.089-0.09-0.176-0.201-0.078-0.334c0.094-0.129,0.234-0.215,0.396-0.154c0.141,0.055,0.258,0.168,0.401,0.225
		c0.247,0.1,0.476,0.008,0.606-0.195c0.172-0.266-0.029-0.422-0.244-0.541c-0.249-0.137-0.512-0.246-0.743-0.398
		c-0.372-0.244-0.591-0.576-0.442-1.043C82.021,104.35,82.386,104.158,82.854,104.121z"/>
	<path fill="#BDBDBC" d="M41.335,106.6c0,0.668,0,1.338,0.002,2.004c0,0.254-0.027,0.461-0.362,0.467
		c-0.31,0-0.393-0.166-0.393-0.436c0.001-1.313,0.001-2.623,0-3.932c0-0.279,0.098-0.432,0.403-0.426
		c0.341,0.006,0.349,0.229,0.349,0.477C41.335,105.367,41.335,105.982,41.335,106.6z"/>
	<path fill="#BDBDBC" d="M85.528,104.311c0,0.438-0.004,0.871,0,1.307c0.001,0.271-0.004,0.525-0.389,0.514
		c-0.322-0.01-0.363-0.211-0.363-0.465c0.003-0.924,0.003-1.846,0-2.77c0-0.248,0.022-0.459,0.356-0.477
		c0.377-0.014,0.399,0.229,0.396,0.504C85.524,103.385,85.528,103.848,85.528,104.311z"/>
	<path fill="#BDBDBC" d="M43.182,105.926c0,0.408-0.003,0.82,0,1.232c0.004,0.262-0.126,0.365-0.381,0.363
		c-0.252,0-0.367-0.123-0.367-0.377c0.002-0.82,0.002-1.645,0-2.463c-0.004-0.24,0.074-0.389,0.344-0.402
		c0.306-0.014,0.413,0.131,0.408,0.416C43.179,105.104,43.182,105.516,43.182,105.926z"/>
	<path fill="#B9B9B8" d="M32.531,106.363c0,0.514,0.001,1.025,0,1.543c0,0.191-0.033,0.359-0.279,0.375
		c-0.273,0.018-0.36-0.137-0.36-0.379c0-1.027,0-2.055,0-3.082c0-0.246,0.088-0.393,0.362-0.371
		c0.246,0.014,0.278,0.184,0.278,0.375C32.533,105.338,32.531,105.852,32.531,106.363z"/>
	<path fill="#BBBBBA" d="M76.092,103.496c-0.367-0.117-0.864-0.432-1.422-0.02c-0.156,0.113-0.301-0.154-0.2-0.352
		c0.223-0.436,0.568-0.654,1.074-0.498c0.373,0.113,0.702,0.35,1.135,0.012c0.256-0.201,0.408,0.088,0.328,0.363
		C76.901,103.371,76.617,103.523,76.092,103.496z"/>
	<path fill="#BDBDBC" d="M40.977,103.813c-0.303-0.045-0.532-0.227-0.532-0.539c-0.004-0.313,0.22-0.518,0.541-0.531
		c0.347-0.018,0.506,0.203,0.506,0.529C41.495,103.6,41.335,103.799,40.977,103.813z"/>
	<path fill="#B9B9B8" d="M43.348,103.021c-0.011,0.41-0.15,0.637-0.505,0.625c-0.323-0.012-0.546-0.215-0.548-0.535
		c-0.003-0.281,0.196-0.49,0.483-0.512C43.107,102.576,43.299,102.77,43.348,103.021z"/>
	<path fill="#BDBDBC" d="M32.181,102.895c0.323,0.012,0.441,0.248,0.457,0.51c0.018,0.275-0.153,0.506-0.438,0.533
		c-0.327,0.033-0.432-0.213-0.44-0.496C31.752,103.154,31.863,102.945,32.181,102.895z"/>
	<path fill="#BDBDBC" d="M85.655,107.172c-0.082,0.256-0.205,0.498-0.506,0.48c-0.318-0.02-0.402-0.27-0.389-0.553
		c0.015-0.285,0.133-0.52,0.458-0.475C85.497,106.662,85.626,106.889,85.655,107.172z"/>
	<path fill="#FFF3F7" d="M195.367,100.008c-0.375,0.635-0.872,1.127-1.43,1.66C194,100.73,194.454,100.223,195.367,100.008z"/>
</g>
</svg>
