<?xml version="1.0" encoding="utf-8"?>
<!-- Generator: Adobe Illustrator 16.0.0, SVG Export Plug-In . SVG Version: 6.00 Build 0)  -->
<!DOCTYPE svg PUBLIC "-//W3C//DTD SVG 1.1//EN" "http://www.w3.org/Graphics/SVG/1.1/DTD/svg11.dtd">
<svg version="1.1" id="Layer_1" xmlns="http://www.w3.org/2000/svg" xmlns:xlink="http://www.w3.org/1999/xlink" x="0px" y="0px"
	 width="564.467px" height="176.426px" viewBox="-194.5 -45.5 564.467 176.426"
	 enable-background="new -194.5 -45.5 564.467 176.426" xml:space="preserve">
<g>
	<path fill="#036DC4" d="M354.705-34.055h-533.941c-6.416,0-11.615,5.201-11.615,11.615v40.828v17.597v40.828
		c0,6.414,5.201,11.613,11.615,11.613h533.941c6.412,0,11.613-5.2,11.613-11.613V35.984V18.387V-22.44
		C366.318-28.854,361.117-34.055,354.705-34.055z"/>
	<g>
		<g>
			<path fill="#FFFFFF" d="M186.452,29.428c3.663-0.613,7.298-1.218,11.014-1.837c0,5.757,0,11.38,0,17.024
				c1.492-0.313,2.905-0.711,4.349-0.895c3.545-0.448,7.078-0.472,10.531,0.677c3.275,1.096,5.094,3.449,5.639,6.768
				c0.299,1.833,0.445,3.712,0.461,5.568c0.035,3.68,0.031,7.369-0.143,11.046c-0.162,3.543-1.174,6.795-4.139,9.105
				c-1.957,1.531-4.26,2.272-6.664,2.673c-4.813,0.801-9.64,0.633-14.458,0.043c-1.981-0.24-3.955-0.563-5.93-0.801
				c-0.543-0.065-0.74-0.287-0.714-0.807c0.017-0.338-0.003-0.681-0.003-1.021c0-15.481,0-30.964,0.003-46.446
				C186.401,30.187,186.432,29.848,186.452,29.428z M197.483,70.78c2.155,0.255,4.232,0.356,6.283-0.051
				c2.205-0.437,3.322-1.63,3.422-3.906c0.15-3.416,0.191-6.841,0.109-10.256c-0.059-2.348-1.098-3.357-3.371-3.736
				c-2.174-0.362-4.157,0.293-6.069,1.235c-0.202,0.097-0.358,0.487-0.358,0.744c-0.026,3.08-0.017,6.16-0.017,9.241
				C197.483,66.256,197.483,68.467,197.483,70.78z"/>
			<path fill="#FFFFFF" d="M324.225,79.586c-0.773,0-1.4,0-2.029,0c-3.023,0-6.059-0.022-9.082,0.015
				c-0.666,0.01-1.029-0.208-1.365-0.772c-2.969-4.996-5.971-9.979-8.959-14.963c-0.086-0.136-0.166-0.26-0.363-0.577
				c0,5.52,0,10.842,0,16.251c-0.357,0.019-0.637,0.044-0.912,0.044c-3.105,0.003-6.213-0.024-9.32,0.019
				c-0.734,0.013-0.943-0.2-0.938-0.918c0.029-3.503,0.014-7.008,0.014-10.507c0-12.56,0-25.121,0-37.679
				c0-1.091,0.004-1.068,1.109-1.25c3.029-0.497,6.055-1.014,9.084-1.519c0.258-0.042,0.52-0.048,0.877-0.08
				c0,10.563,0,21.072,0,31.583c0.061,0.019,0.119,0.039,0.18,0.057c0.273-0.42,0.561-0.837,0.832-1.263
				c2.797-4.423,5.598-8.844,8.379-13.282c0.346-0.558,0.713-0.832,1.43-0.819c3.266,0.05,6.531,0.021,9.795,0.021
				c0.367,0,0.73,0,1.273,0c-0.193,0.362-0.305,0.61-0.447,0.836c-3.32,5.247-6.633,10.498-9.973,15.726
				c-0.365,0.567-0.428,0.98-0.045,1.605c3.4,5.594,6.752,11.22,10.117,16.838C323.971,79.098,324.051,79.263,324.225,79.586z"/>
			<path fill="#FFFFFF" d="M181.946,69.71c0.021,0.276,0.049,0.507,0.049,0.738c0.002,2.501-0.012,5.002,0.011,7.503
				c0.007,0.53-0.112,0.751-0.699,0.88c-4.989,1.104-10.038,1.414-15.125,1.188c-2.395-0.104-4.732-0.617-6.93-1.647
				c-4.012-1.879-6.264-5.104-7.023-9.385c-0.273-1.542-0.308-3.135-0.338-4.703c-0.048-2.738-0.097-5.479,0.017-8.21
				c0.131-3.051,0.955-5.911,3.035-8.269c1.79-2.032,4.1-3.17,6.707-3.728c4.444-0.955,8.876-0.959,13.219,0.494
				c4.503,1.504,7.152,4.739,7.705,9.378c0.436,3.631,0.354,7.32,0.506,11.099c-0.541,0-0.851,0-1.159,0
				c-6.027,0-12.055,0.012-18.084-0.019c-0.704,0-0.95,0.21-0.878,0.886c0.059,0.551,0.022,1.113,0.124,1.651
				c0.356,1.857,1.383,2.917,3.312,3.05c2.274,0.155,4.575,0.228,6.849,0.075c2.747-0.182,5.473-0.642,8.205-0.975
				C181.594,69.695,181.75,69.71,181.946,69.71z M167.43,57.546c0.734,0,1.473,0,2.211,0c2.394,0.003,2.394,0.003,2.146-2.393
				c-0.17-1.638-1.044-2.789-2.675-3.088c-1.085-0.202-2.252-0.194-3.35-0.036c-1.348,0.188-2.299,1.047-2.579,2.434
				c-0.157,0.788-0.148,1.61-0.224,2.418c-0.05,0.515,0.178,0.685,0.687,0.676C164.906,57.531,166.17,57.546,167.43,57.546z"/>
			<path fill="#FFFFFF" d="M288.471,61.698c-0.146,2.48-0.127,4.886-0.463,7.248c-0.793,5.58-4.063,9.036-9.516,10.357
				c-4.504,1.089-9.02,1.058-13.461-0.348c-4.809-1.524-7.561-4.897-8.357-9.819c-0.295-1.803-0.311-3.663-0.322-5.497
				c-0.023-2.681-0.08-5.378,0.152-8.042c0.559-6.321,4.068-10.24,10.34-11.57c4.33-0.914,8.68-0.86,12.932,0.531
				c4.705,1.539,7.434,4.861,8.193,9.677C288.359,56.717,288.324,59.259,288.471,61.698z M277.209,61.78c-0.008,0-0.01,0-0.014,0
				c0-1.741,0.029-3.478-0.01-5.213c-0.035-1.668-1.098-3.029-2.684-3.519c-1.311-0.407-2.641-0.437-3.971-0.108
				c-1.803,0.451-3.012,1.751-3.039,3.478c-0.057,3.549-0.057,7.108-0.002,10.66c0.027,1.693,1.098,3.027,2.756,3.43
				c0.977,0.238,2.031,0.329,3.039,0.257c2.484-0.169,3.902-1.759,3.916-4.248C277.221,64.938,277.209,63.358,277.209,61.78z"/>
			<path fill="#FFFFFF" d="M253.572,62.092c-0.182,2.289-0.195,4.961-0.648,7.559c-0.939,5.388-4.402,8.52-9.607,9.727
				c-4.236,0.984-8.5,0.941-12.705-0.258c-4.986-1.424-7.941-4.732-8.865-9.815c-0.225-1.229-0.311-2.504-0.33-3.759
				c-0.043-2.946-0.098-5.899,0.023-8.839c0.158-3.762,1.254-7.197,4.217-9.769c2.004-1.741,4.404-2.635,6.986-3.058
				c4.26-0.702,8.486-0.652,12.598,0.818c4.572,1.639,7.125,5.004,7.816,9.719C253.412,56.825,253.396,59.283,253.572,62.092z
				 M232.543,61.731c-0.02,0-0.035,0-0.053,0c0,1.58-0.004,3.159,0,4.739c0,0.234,0.025,0.475,0.053,0.708
				c0.199,1.636,1,2.878,2.629,3.286c1.047,0.265,2.186,0.381,3.262,0.288c2.338-0.2,3.814-1.778,3.828-3.941
				c0.025-3.37,0.021-6.743-0.002-10.109c-0.012-1.789-1.088-3.17-2.809-3.675c-1.367-0.402-2.744-0.404-4.121-0.012
				c-1.65,0.477-2.701,1.702-2.771,3.426C232.49,58.202,232.543,59.968,232.543,61.731z"/>
			<path fill="#FFFFFF" d="M108.249,77.707c-2.093,0.664-4.089,1.418-6.138,1.91c-2.448,0.582-4.948,0.698-7.417,0.012
				c-3.888-1.082-6.022-3.762-6.789-7.611c-0.376-1.896-0.348-3.82,0.05-5.719c0.74-3.524,2.98-5.614,6.427-6.353
				c1.606-0.342,3.277-0.447,4.925-0.51c2.209-0.085,4.424-0.047,6.633-0.008c0.679,0.016,0.887-0.209,0.821-0.85
				c-0.053-0.552-0.064-1.108-0.05-1.659c0.053-2.843-1.347-3.452-3.582-3.548c-3.574-0.154-7.158-0.124-10.735-0.174
				c-0.313-0.003-0.627,0-1.061,0c0.067-0.868,0.116-1.666,0.196-2.457c0.204-2.093,0.406-4.187,0.657-6.273
				c0.025-0.195,0.385-0.499,0.585-0.498c4.608,0.028,9.214,0.028,13.819,0.183c1.473,0.05,2.963,0.429,4.392,0.833
				c3.949,1.125,5.953,3.956,6.512,7.881c0.229,1.632,0.323,3.298,0.329,4.946c0.038,6.978,0.005,13.954,0.03,20.935
				c0.007,0.742-0.173,0.996-0.955,0.981c-2.472-0.051-4.95-0.051-7.426,0.005c-0.732,0.01-0.977-0.288-1.045-0.933
				C108.388,78.394,108.295,77.982,108.249,77.707z M103.455,66.916v0.012c-0.814,0-1.631-0.022-2.448,0.003
				c-1.606,0.054-2.283,0.792-2.248,2.385c0.039,1.831,0.869,2.677,2.696,2.789c1.768,0.106,3.368-0.44,4.89-1.251
				c0.212-0.11,0.375-0.482,0.392-0.746c0.043-0.843-0.002-1.687,0.026-2.526c0.019-0.531-0.209-0.686-0.705-0.67
				C105.193,66.937,104.323,66.916,103.455,66.916z"/>
			<path fill="#FFFFFF" d="M88.757,26.605c0,2.209,0,4.183,0,6.154c0,0.842-0.026,1.684,0.004,2.526
				c0.019,0.512-0.154,0.693-0.676,0.685c-1.446-0.023-2.896-0.021-4.345,0.008c-0.494,0.009-1,0.072-1.479,0.192
				c-0.939,0.228-1.532,0.856-1.559,1.841c-0.059,1.938-0.02,3.879-0.02,5.919c2.625,0,5.32,0,8.125,0
				c-0.14,1.479-0.263,2.857-0.404,4.233c-0.137,1.384-0.318,2.766-0.429,4.157c-0.051,0.631-0.227,0.913-0.942,0.894
				c-2.126-0.049-4.257-0.016-6.458-0.016c0,8.793,0,17.522,0,26.316c-3.688,0-7.306,0-11.034,0
				c-0.028-0.354-0.077-0.734-0.077-1.112c-0.003-8.085-0.012-16.17,0.016-24.254c0.001-0.738-0.15-1.009-0.946-0.973
				c-1.462,0.075-2.936,0.021-4.506,0.021c0-0.378,0-0.657,0-0.938c0-2.371-0.011-4.739,0-7.111
				c0.007-1.326-0.157-1.193,1.167-1.207c1.185-0.007,2.369-0.032,3.555,0.011c0.575,0.019,0.717-0.205,0.717-0.728
				c0.013-2.185-0.025-4.375,0.105-6.553c0.161-2.738,0.909-5.288,2.986-7.257c1.545-1.468,3.462-2.302,5.521-2.454
				C81.586,26.706,85.107,26.713,88.757,26.605z"/>
			<path fill="#FFFFFF" d="M148.799,53.898c-1.762-0.273-3.388-0.551-5.025-0.778c-2.792-0.382-5.593-0.688-8.389-0.083
				c-1.77,0.379-2.806,1.494-2.836,3.296c-0.071,3.649-0.068,7.306,0,10.958c0.029,1.689,1.001,2.929,2.674,3.148
				c2.015,0.271,4.083,0.369,6.107,0.244c2.299-0.15,4.571-0.63,6.862-0.965c0.148-0.021,0.311-0.003,0.53-0.003
				c0.029,0.205,0.081,0.405,0.081,0.599c0.002,2.557-0.009,5.11,0.008,7.662c0.003,0.497-0.106,0.724-0.654,0.848
				c-4.098,0.921-8.235,1.469-12.436,1.2c-3.704-0.235-7.221-1.122-10.095-3.685c-2.431-2.167-3.805-4.975-4.026-8.143
				c-0.271-3.901-0.355-7.841-0.149-11.736c0.24-4.429,2.032-8.194,6.004-10.604c2.193-1.337,4.622-1.961,7.154-2.235
				c4.583-0.497,9.071,0.135,13.524,1.128c0.254,0.057,0.637,0.374,0.637,0.576C148.812,48.139,148.799,50.95,148.799,53.898z"/>
		</g>
	</g>
	<g>
		<path fill="#FFFFFF" d="M-150.804,4.209c0.1,5.81-3.445,11.686-11.488,11.686c-2.823,0-6.204,0-9.026,0V-7.083
			c2.822,0,6.203,0,9.026,0C-154.416-7.083-150.903-1.469-150.804,4.209z M-167.019,11.725h4.727c5.219,0,7.288-3.808,7.188-7.549
			c-0.099-3.577-2.199-7.155-7.188-7.155h-4.727V11.725z"/>
		<path fill="#FFFFFF" d="M-131.506,11.561h-12.015l-1.968,4.333h-4.693l10.306-22.977h4.727l10.307,22.977h-4.727L-131.506,11.561z
			 M-137.514-2.258l-4.268,9.78h8.535L-137.514-2.258z"/>
		<path fill="#FFFFFF" d="M-95.534,13.006c-2.363,2.331-5.416,3.414-8.731,3.414c-8.533,0-12.144-5.875-12.177-11.849
			c-0.032-6.007,3.874-12.112,12.177-12.112c3.119,0,6.073,1.182,8.436,3.512l-2.888,2.791c-1.51-1.478-3.545-2.167-5.548-2.167
			c-5.546,0-7.943,4.135-7.91,7.976c0.032,3.808,2.233,7.779,7.91,7.779c2.003,0,4.268-0.82,5.778-2.332L-95.534,13.006z"/>
		<path fill="#FFFFFF" d="M-87.824-7.083v18.972h11.817v4.004h-16.15V-7.083H-87.824z"/>
		<path fill="#FFFFFF" d="M-72.727,15.894V-7.083h4.299v22.977H-72.727z"/>
		<path fill="#FFFFFF" d="M-43.384,13.006c-2.363,2.331-5.416,3.414-8.73,3.414c-8.535,0-12.146-5.875-12.178-11.849
			c-0.034-6.007,3.874-12.112,12.178-12.112c3.118,0,6.072,1.182,8.436,3.512l-2.888,2.791c-1.51-1.478-3.545-2.167-5.546-2.167
			c-5.549,0-7.944,4.135-7.912,7.976c0.034,3.808,2.233,7.779,7.912,7.779c2.001,0,4.267-0.82,5.777-2.332L-43.384,13.006z"/>
		<path fill="#FFFFFF" d="M-21.559-6.953L-31.767,4.043l11.061,11.586v0.264h-5.351l-9.617-10.176v10.176h-4.333V-7.083h4.333v9.716
			l8.731-9.716h5.384V-6.953z"/>
		<path fill="#FFFFFF" d="M4.794,12.119H-5.479l-1.51,3.775h-6.894L-3.577-7.083h6.565l10.273,22.977H6.303L4.794,12.119z
			 M-0.325-0.649L-3.28,6.669h5.875L-0.325-0.649z"/>
		<path fill="#FFFFFF" d="M36.533,11.2l2.593,2.659l-4.331,4.267l-2.89-2.955c-1.805,0.853-3.841,1.247-6.137,1.247
			c-7.517,0-12.704-4.497-12.704-12.046c0-7.549,5.186-12.013,12.704-12.013c7.549,0,12.703,4.463,12.703,12.013
			C38.469,6.965,37.747,9.296,36.533,11.2z M25.768-2.126c-3.676,0-6.269,2.692-6.269,6.498c0,4.005,2.593,6.5,6.269,6.5
			c3.808,0,6.203-2.429,6.203-6.5C31.97,0.565,29.574-2.126,25.768-2.126z"/>
		<path fill="#FFFFFF" d="M63.214-7.051V5.783c0.034,6.794-4.103,10.602-10.831,10.602c-6.729,0-10.833-3.644-10.833-10.668V-7.051
			h6.466V5.718c0,3.61,1.74,5.121,4.365,5.121c2.625,0,4.365-1.576,4.365-5.055V-7.051H63.214z"/>
		<path fill="#FFFFFF" d="M67.545,15.894V-7.083h6.467v22.977H67.545z M76.703-14.173h-6.334L67.84-8.889v0.198h5.285l3.577-5.219
			V-14.173L76.703-14.173z"/>
		<path fill="#FFFFFF" d="M94.327,2.402l6.104-9.485h5.22v0.196L96.493,6.407v9.485h-4.332V6.408L83.332-6.885v-0.196h5.154
			L94.327,2.402z"/>
		<path fill="#FFFFFF" d="M128.822-1.537c-0.79-1.313-2.956-2.56-5.449-2.56c-3.218,0-4.758,1.346-4.758,3.053
			c0,2.001,2.363,2.559,5.119,2.888c4.792,0.591,9.256,1.839,9.256,7.32c0,5.121-4.529,7.319-9.649,7.319
			c-4.693,0-8.305-1.443-10.013-5.645l3.61-1.873c1.018,2.528,3.676,3.644,6.467,3.644c2.724,0,5.285-0.952,5.285-3.446
			c0-2.167-2.266-3.052-5.317-3.381c-4.693-0.558-9.027-1.806-9.027-6.959c0-4.727,4.661-6.663,8.896-6.696
			c3.578,0,7.287,1.018,9.027,4.563L128.822-1.537z"/>
		<path fill="#FFFFFF" d="M136.927,15.894V-7.083h4.301v22.977H136.927z"/>
		<path fill="#FFFFFF" d="M163.316-1.469c-1.544-1.479-3.842-2.298-5.843-2.298c-4.925,0-7.912,3.743-7.912,8.469
			c0,3.775,2.201,7.68,7.912,7.68c1.804,0,3.379-0.394,5.184-1.839V6.474h-5.875V2.6h9.847v9.683
			c-2.265,2.592-5.12,4.136-9.157,4.136c-8.632,0-12.145-5.678-12.145-11.718c0-6.466,4.038-12.44,12.145-12.44
			c3.084,0,6.17,1.182,8.533,3.513L163.316-1.469z"/>
		<path fill="#FFFFFF" d="M190.917-7.051V6.112c0,6.793-4.169,10.273-9.946,10.273c-5.515,0-10.208-3.349-10.208-10.273V-7.051
			h4.301V6.112c0,4.135,2.363,6.334,5.94,6.334c3.578,0,5.613-2.396,5.613-6.334V-7.051H190.917z"/>
		<path fill="#FFFFFF" d="M213.268,15.894h-17.201c0-7.648,0-15.328,0-22.977h17.201v4.202h-12.9v5.284h12.441v4.038h-12.441v5.186
			h12.9V15.894L213.268,15.894z"/>
		<path fill="#FFFFFF" d="M233.615,8.378V-7.083h4.334v22.977h-3.514L222.227,0.599v15.295h-4.334V-7.083h3.514L233.615,8.378z"/>
		<path fill="#FFFFFF" d="M265.648,4.538c-0.066,5.94-3.709,11.882-11.783,11.882s-11.816-5.81-11.816-11.849
			c0-7.254,5.252-12.112,11.916-12.112C261.809-7.477,265.713-1.438,265.648,4.538z M253.865,12.447
			c5.416,0,7.451-4.069,7.518-7.844c0.064-3.84-2.135-8.108-7.418-8.207c-4.893,0-7.781,3.676-7.648,8.238
			C246.414,8.41,248.449,12.447,253.865,12.447z"/>
		<path fill="#FFFFFF" d="M283.402-1.537c-0.787-1.313-2.953-2.56-5.447-2.56c-3.217,0-4.76,1.346-4.76,3.053
			c0,2.001,2.363,2.559,5.119,2.888c4.793,0.591,9.256,1.839,9.256,7.32c0,5.121-4.529,7.319-9.648,7.319
			c-4.693,0-8.305-1.443-10.012-5.645l3.607-1.873c1.02,2.528,3.678,3.644,6.467,3.644c2.725,0,5.285-0.952,5.285-3.446
			c0-2.167-2.266-3.052-5.316-3.381c-4.693-0.558-9.027-1.806-9.027-6.959c0-4.727,4.662-6.663,8.895-6.696
			c3.58,0,7.289,1.018,9.029,4.563L283.402-1.537z"/>
		<path fill="#FFFFFF" d="M316.648,15.894h-17.199c0-7.648,0-15.328,0-22.977h17.199v4.202H303.75v5.284h12.441v4.038H303.75v5.186
			h12.898V15.894z"/>
		<path fill="#FFFFFF" d="M336.998,8.378V-7.083h4.332v22.977h-3.514L325.607,0.599v15.295h-4.332V-7.083h3.514L336.998,8.378z"/>
	</g>
	<g>
		<path fill="#9999FF" d="M0.503,30.477c1.172-1.186,2.326-2.379,3.44-3.532c4.103-4.241,7.978-8.25,11.563-10.671
			c1.421-0.961,2.786-1.651,4.094-2.073c-2.25-0.648-4.661-0.111-7.201,1.628c-2.755,1.886-5.563,5.035-8.812,8.68
			c-1.938,2.174-3.94,4.42-6.172,6.677c-1.802,1.826-3.67,3.651-5.503,5.399c-0.178,1.14-0.435,2.348-0.774,3.629
			C-6.055,37.233-2.795,33.816,0.503,30.477z"/>
		<path fill="#9999FF" d="M-71.321,88.054c0.287-0.729,0.874-1.294,1.61-1.551c6.029-2.118,14.277-9.114,15.311-14.252
			c0.621-3.083,0.779-5.651,0.917-7.912c0.372-6.027,0.665-10.79,8.9-17.33c6.576-5.222,10.915-11.388,14.4-16.339
			c3.186-4.526,6.063-8.614,9.586-9.661c-0.347-0.205-0.713-0.394-1.1-0.564c-5.753-2.51-9.571,2.914-13.994,9.199
			c-3.494,4.966-7.842,11.145-14.442,16.385c-8.162,6.482-8.453,11.205-8.819,17.177c-0.14,2.271-0.299,4.846-0.922,7.944
			c-0.494,2.455-2.655,5.535-5.928,8.451c-2.985,2.658-6.634,4.937-9.518,5.952c-0.671,0.236-1.211,0.753-1.479,1.411
			c-0.267,0.662-0.235,1.405,0.082,2.04c0.081,0.159,8.012,15.958,16.181,28.244c0.424,0.641,1.125,1.047,1.892,1.099
			c0.767,0.057,1.516-0.25,2.027-0.82c0.166-0.186,0.368-0.403,0.599-0.639c-7.431-11.86-15.096-26.437-15.182-26.6
			C-71.564,89.596-71.607,88.781-71.321,88.054z"/>
		<path fill="#FFFFFF" d="M11.218,79.691c-0.592-0.879-2.149-3.174-10.912,1.616c-2.432,1.436-7.893,4.276-8.124,4.396
			c-1.315,0.686-2.939,0.176-3.623-1.139c-0.688-1.313-0.182-2.936,1.129-3.625c0.024-0.013,2.407-1.267,7.958-4.307l0.219-0.131
			c2.981-1.763,7.063-4.177,9.952-6.686c1.18-1.024,3.849-3.576,3.164-5.106c-0.061-0.137-0.132-0.265-0.211-0.386
			c-1.111-1.67-4.375-2.132-7.486-0.182c-6.959,5.172-15.367,9.16-15.724,9.328c-1.311,0.62-2.878,0.086-3.538-1.202
			c-0.663-1.291-0.183-2.875,1.084-3.582c0.084-0.044,8.443-4.703,15.123-8.974l0.625-0.464c5.436-4.043,7.719-6.041,6.75-8.168
			c-0.064-0.141-0.137-0.273-0.215-0.394c-1.485-2.233-6.731-1.233-10.429,1.152c-7.311,4.715-14.857,9.316-14.932,9.362
			c-1.26,0.766-2.908,0.361-3.684-0.88c-0.778-1.254-0.4-2.902,0.848-3.687c0.143-0.092,14.498-9.191,27.232-19.209
			c1.889-1.487,3.932-2.939,5.905-4.346c5.199-3.7,11.671-8.303,10.141-10.605c-0.079-0.119-0.176-0.243-0.288-0.369
			c-3.322-3.725-10.417,0.728-21.705,8.504c-1.515,1.046-3.083,2.126-4.681,3.205C-16.074,41.81-27.779,50.5-27.895,50.586
			c-1.08,0.803-2.588,0.683-3.529-0.281c-0.939-0.968-1.021-2.476-0.188-3.536c5.318-6.782,11.613-18.133,8.954-22.127
			c-0.346-0.521-0.867-0.931-1.595-1.249c-1.71-0.743-3.657,1.695-7.7,7.438c-3.684,5.237-8.271,11.752-15.453,17.458
			c-6.36,5.05-6.532,7.856-6.876,13.448c-0.15,2.435-0.322,5.196-1.013,8.643c-0.925,4.593-4.621,8.677-7.56,11.296
			c-2.599,2.313-5.578,4.342-8.386,5.742c2.634,4.896,8.651,15.886,14.34,24.84c3.118-3.503,8.693-8.848,13.953-9.225l1.227-0.09
			c7.752-0.551,14.449-1.03,21.784-3.419c8.542-2.783,16.113-6.142,21.895-9.713c7.242-4.469,8.923-7.54,9.31-8.652
			C11.59,80.247,11.338,79.87,11.218,79.691z"/>
		<path fill="#333333" d="M15.889,76.583c-0.004-0.005-0.029-0.043-0.035-0.049c-1.084-1.632-2.527-2.555-3.972-3.097
			c3.625-3.28,5.841-6.976,4.058-10.954c-0.182-0.406-0.422-0.781-0.666-1.148c-1.1-1.656-2.719-2.787-4.583-3.383
			c2.305-2.613,3.44-5.529,1.814-9.102c-0.182-0.401-0.399-0.78-0.635-1.136c-1.228-1.849-3.123-3.029-5.486-3.459
			c1.127-0.859,2.251-1.724,3.365-2.602c1.788-1.404,3.774-2.819,5.697-4.188c3.722-2.646,7.238-5.149,9.617-7.735
			c4.165-4.532,3.326-8.063,1.887-10.229c-0.22-0.33-0.474-0.654-0.754-0.97c-2.161-2.424-4.983-3.445-8.42-3.057
			c-1.556,0.178-3.236,0.64-5.038,1.394c-4.546,1.898-9.776,5.503-15.311,9.317c-1.506,1.038-3.06,2.108-4.636,3.171
			c-4.434,2.987-8.842,6.071-12.646,8.77c0.666-1.356,1.225-2.645,1.678-3.879c1.986-5.369,1.986-9.589-0.004-12.582
			c-0.924-1.388-2.242-2.463-3.924-3.197c-1.702-0.742-3.234-0.813-4.66-0.391c-3.524,1.05-6.403,5.132-9.589,9.661
			c-3.484,4.953-7.824,11.118-14.4,16.34c-8.234,6.539-8.526,11.301-8.898,17.328c-0.14,2.265-0.296,4.829-0.917,7.912
			c-1.033,5.14-9.283,12.132-15.311,14.252c-0.737,0.259-1.324,0.823-1.61,1.552c-0.287,0.727-0.243,1.543,0.121,2.231
			c0.086,0.166,7.752,14.743,15.183,26.6c0.936,1.497,1.871,2.948,2.785,4.327c0.482,0.725,1.288,1.172,2.161,1.198
			c0.872,0.025,1.699-0.375,2.226-1.07c2.805-3.726,8.666-9.738,12.452-10.015l1.224-0.086c7.768-0.552,15.106-1.075,23.068-3.667
			c18.544-6.044,32.229-14.627,34.715-21.773C17.227,80.616,17.097,78.403,15.889,76.583z M1.96,89.814
			c-5.782,3.571-13.353,6.93-21.895,9.713c-7.335,2.389-14.032,2.868-21.784,3.419l-1.228,0.09
			c-5.259,0.377-10.833,5.722-13.953,9.225c-5.689-8.954-11.708-19.944-14.34-24.84c2.807-1.4,5.786-3.429,8.386-5.742
			c2.938-2.619,6.635-6.7,7.56-11.296c0.692-3.445,0.863-6.209,1.013-8.643c0.345-5.592,0.516-8.398,6.876-13.448
			c7.182-5.705,11.769-12.221,15.454-17.458c4.042-5.743,5.989-8.181,7.699-7.438c0.728,0.319,1.25,0.728,1.595,1.248
			c2.659,3.994-3.637,15.346-8.954,22.128c-0.832,1.06-0.75,2.568,0.188,3.536c0.939,0.964,2.449,1.084,3.529,0.281
			c0.117-0.086,11.822-8.776,23.691-16.772c1.599-1.079,3.167-2.158,4.682-3.205c11.287-7.776,18.381-12.23,21.704-8.504
			c0.112,0.126,0.209,0.25,0.288,0.369c1.532,2.302-4.94,6.905-10.141,10.606c-1.975,1.406-4.018,2.858-5.906,4.345
			C-6.307,47.447-20.661,56.545-20.804,56.638c-1.248,0.785-1.625,2.434-0.848,3.688c0.776,1.241,2.423,1.647,3.684,0.88
			c0.075-0.046,7.622-4.646,14.931-9.362c3.698-2.385,8.944-3.385,10.429-1.153c0.078,0.12,0.151,0.253,0.215,0.394
			c0.969,2.128-1.314,4.125-6.75,8.168l-0.625,0.464c-6.681,4.269-15.042,8.929-15.125,8.974c-1.267,0.707-1.747,2.288-1.084,3.58
			c0.66,1.289,2.227,1.822,3.538,1.204c0.356-0.169,8.766-4.158,15.723-9.329c3.112-1.95,6.377-1.488,7.487,0.182
			c0.079,0.12,0.15,0.249,0.211,0.385c0.686,1.531-1.984,4.084-3.164,5.108c-2.89,2.507-6.971,4.92-9.952,6.683l-0.219,0.132
			c-5.55,3.041-7.933,4.294-7.958,4.307c-1.311,0.691-1.816,2.313-1.129,3.625c0.685,1.313,2.308,1.824,3.623,1.14
			c0.231-0.119,5.692-2.962,8.124-4.396c8.763-4.791,10.32-2.496,10.912-1.618c0.121,0.182,0.371,0.559,0.053,1.473
			C10.882,82.274,9.204,85.346,1.96,89.814z"/>
		<path fill="#9999FF" d="M7.417-11.894c0.405,0.673,1.024,1.391,1.719,2.087c1.724,1.723,3.915,3.307,4.476,3.702
			c1.064,0.753,2.538,0.5,3.291-0.563c0.753-1.065,0.5-2.537-0.566-3.29c-1.623-1.148-4.209-3.262-4.875-4.368
			c-0.674-1.118-2.123-1.478-3.24-0.804C7.106-14.459,6.746-13.009,7.417-11.894z"/>
		<path fill="#9999FF" d="M23.865-12.754c0.075,0.523,0.318,0.981,0.666,1.329c0.509,0.51,1.244,0.779,2.01,0.667
			c1.29-0.188,2.183-1.385,1.996-2.676c-0.413-2.832-0.042-7.583-0.039-7.632c0.102-1.299-0.867-2.436-2.166-2.541
			c-1.299-0.101-2.436,0.868-2.541,2.166C23.773-21.227,23.375-16.116,23.865-12.754z"/>
		<path fill="#9999FF" d="M39.167-13.304c-0.857,0.935-0.818,2.374,0.068,3.263c0.025,0.025,0.051,0.048,0.076,0.072
			c0.962,0.88,2.454,0.815,3.334-0.146c2.997-3.271,4.7-6.488,4.772-6.625c0.604-1.153,0.16-2.576-0.992-3.183
			c-1.152-0.606-2.578-0.163-3.187,0.988C43.225-18.907,41.731-16.101,39.167-13.304z"/>
		<path fill="#9999FF" d="M43.561,8.997c0.449,0.449,1.079,0.717,1.763,0.69c3.565-0.143,6.792-1.391,6.927-1.445
			c1.215-0.474,1.814-1.846,1.338-3.058c-0.475-1.213-1.844-1.813-3.058-1.338c-0.025,0.01-2.659,1.014-5.395,1.122
			c-1.302,0.052-2.316,1.149-2.265,2.453C42.896,8.039,43.157,8.591,43.561,8.997z"/>
		<path fill="#9999FF" d="M41.011,16.786c-1.18,0.557-1.687,1.962-1.131,3.143c0.161,0.341,1.178,2.407,3.033,4.265
			c1.051,1.052,2.372,2.035,3.958,2.6c1.227,0.44,2.577-0.201,3.016-1.427c0.439-1.227-0.202-2.577-1.427-3.016
			c-2.161-0.77-3.844-3.465-4.311-4.438C43.591,16.735,42.19,16.233,41.011,16.786z"/>
	</g>
</g>
</svg>
