<?xml version="1.0" encoding="utf-8"?>
<!-- Generator: Adobe Illustrator 16.0.0, SVG Export Plug-In . SVG Version: 6.00 Build 0)  -->
<!DOCTYPE svg PUBLIC "-//W3C//DTD SVG 1.1//EN" "http://www.w3.org/Graphics/SVG/1.1/DTD/svg11.dtd">
<svg version="1.1" id="Layer_1" xmlns="http://www.w3.org/2000/svg" xmlns:xlink="http://www.w3.org/1999/xlink" x="0px" y="0px"
	 width="85px" height="85px" viewBox="0 0 85 85" enable-background="new 0 0 85 85" xml:space="preserve">
<g>
	
		<circle fill-rule="evenodd" clip-rule="evenodd" fill="#FFFFFF" stroke="#FFFFFF" stroke-width="5" stroke-miterlimit="10" cx="42.5" cy="42.5" r="39.686"/>
	<path fill-rule="evenodd" clip-rule="evenodd" fill="#1977F2" d="M48.722,68.119c-0.001-4.353,0.013-8.702-0.015-13.053
		c-0.004-0.621,0.159-0.803,0.787-0.795c2.582,0.034,5.168-0.002,7.751,0.027c0.563,0.007,0.753-0.151,0.836-0.729
		c0.477-3.283,1.009-6.56,1.517-9.84c0.149-0.962,0.142-0.964-0.801-0.965c-3.112-0.001-6.223-0.015-9.335,0.013
		c-0.58,0.005-0.766-0.132-0.755-0.739c0.039-2.188,0.011-4.377,0.017-6.565c0.004-1.282,0.2-2.526,0.862-3.649
		c1.051-1.779,2.726-2.521,4.69-2.626c1.709-0.092,3.427-0.064,5.14-0.046c0.576,0.005,0.836-0.088,0.826-0.767
		c-0.043-2.768-0.018-5.537-0.022-8.306c-0.001-0.319,0.114-0.687-0.424-0.762c-3.945-0.55-7.893-1.156-11.873-0.445
		c-6.509,1.164-10.602,5.526-11.401,12.098c-0.402,3.31-0.147,6.638-0.2,9.957c-0.029,1.839-0.005,1.839-1.858,1.839
		c-2.505,0-5.01,0.014-7.515-0.012c-0.543-0.005-0.719,0.135-0.715,0.7c0.025,3.376,0.028,6.751-0.004,10.125
		c-0.006,0.622,0.205,0.726,0.768,0.721c2.874-0.029,5.749,0.001,8.623-0.023c0.554-0.006,0.71,0.159,0.709,0.712
		c-0.016,8.753-0.022,17.508,0.008,26.262c0.003,0.836-0.371,0.715-0.902,0.616c-7.884-1.48-14.747-4.968-20.498-10.559
		C8.359,64.911,4.459,57.128,3.186,48.046C0.929,31.947,9.136,15.723,23.449,7.944C40.308-1.217,60.974,2.75,73.17,17.555
		c5.498,6.673,8.493,14.374,8.957,23.022c1.021,19.117-11.438,36.033-29.99,40.742c-0.917,0.231-1.863,0.353-2.781,0.589
		c-0.587,0.15-0.643-0.086-0.64-0.578C48.729,76.926,48.724,72.522,48.722,68.119z"/>
</g>
</svg>
