<?xml version="1.0" encoding="utf-8"?>
<!-- Generator: Adobe Illustrator 16.0.0, SVG Export Plug-In . SVG Version: 6.00 Build 0)  -->
<!DOCTYPE svg PUBLIC "-//W3C//DTD SVG 1.1//EN" "http://www.w3.org/Graphics/SVG/1.1/DTD/svg11.dtd">
<svg version="1.1" id="Layer_1" xmlns="http://www.w3.org/2000/svg" xmlns:xlink="http://www.w3.org/1999/xlink" x="0px" y="0px"
	 width="478.077px" height="123.734px" viewBox="-120.267 4.713 478.077 123.734"
	 enable-background="new -120.267 4.713 478.077 123.734" xml:space="preserve">
<g>
	<path fill="#FF2380" d="M80.687,91.009c0-4.186,0.05-8.375-0.026-12.562c-0.033-1.82,0.461-3.433,1.303-4.982
		c4.075-7.485,13.6-9.336,20.179-3.891c0.547,0.454,0.755,0.102,1.085-0.149c5.098-3.896,12.975-3.612,17.574,0.655
		c2.045,1.901,3.124,4.211,3.111,7.073c-0.041,8.883-0.014,17.768-0.011,26.65c0,1.354-0.562,2.406-1.729,3.068
		c-1.138,0.646-2.322,0.592-3.433-0.087c-1.239-0.758-1.594-1.964-1.594-3.348c0.013-5.585,0.005-11.169,0.005-16.75
		c0-3.107-0.044-6.217,0.024-9.327c0.028-1.199-0.476-1.99-1.348-2.66c-2.638-2.022-6.96-1.671-9.252,0.726
		c-0.529,0.556-0.778,1.143-0.776,1.941c0.028,8.69,0.022,17.386,0.015,26.076c-0.005,2.438-1.802,4.019-4.045,3.605
		c-1.572-0.29-2.66-1.606-2.691-3.334c-0.033-1.429-0.011-2.855-0.011-4.284c0-7.266-0.013-14.532,0.015-21.793
		c0.009-1.494-0.634-2.624-1.831-3.327c-2.788-1.637-7.676-1.854-9.587,2.784c-0.213,0.515-0.289,1.023-0.289,1.569
		c0.007,8.693,0.007,17.383,0.002,26.074c-0.002,1.591-0.836,2.797-2.247,3.301c-1.345,0.478-2.862,0.033-3.764-1.103
		c-0.516-0.651-0.684-1.398-0.682-2.224C80.694,100.149,80.687,95.577,80.687,91.009z"/>
	<path fill="#00AF1C" d="M39.597,97.867c2.316,3.194,6.013,4.097,9.522,2.378c2.459-1.206,4.141-3.176,5.412-5.557
		c0.646-1.206,1.831-1.805,3.067-1.608c1.287,0.204,2.186,1.051,2.473,2.313c0.133,0.61,0.096,1.223-0.19,1.765
		c-2.484,4.705-5.976,8.274-11.346,9.484c-5.122,1.158-9.452-0.389-12.926-4.287c-4.245-4.769-5.279-10.293-3.413-16.299
		c1.6-5.143,5.523-7.719,10.595-8.684c7.343-1.406,12.627,3.116,14.971,7.644c0.951,1.834,0.423,3.404-1.417,4.369
		c-5.014,2.63-10.032,5.261-15.048,7.894C40.792,97.544,40.264,97.74,39.597,97.867z M37.355,92.714
		c0.449-0.252,0.825-0.474,1.207-0.676c3.892-2.036,7.781-4.086,11.687-6.102c0.586-0.304,0.691-0.479,0.14-0.949
		c-2.425-2.066-5.122-2.425-8.079-1.423c-2.867,0.969-4.478,2.982-4.954,5.925C37.19,90.52,37.19,91.566,37.355,92.714z"/>
	<path fill="#FF2380" d="M136.881,97.863c1.389,2.51,4.774,3.802,7.811,2.974c3.283-0.893,5.393-3.187,6.988-6.044
		c1.106-1.988,3.457-2.367,4.895-0.751c0.848,0.959,1.014,2.108,0.444,3.188c-2.464,4.678-5.958,8.217-11.293,9.411
		c-5.417,1.214-9.882-0.558-13.352-4.798c-4.349-5.319-5.019-11.245-2.292-17.447c1.848-4.208,5.549-6.198,9.896-7.03
		c7.195-1.373,12.539,2.953,15.018,7.735c0.881,1.709,0.323,3.344-1.386,4.243c-4.934,2.59-9.866,5.178-14.803,7.765
		C138.198,97.429,137.588,97.752,136.881,97.863z M134.621,92.688c0.38-0.218,0.754-0.447,1.139-0.648
		c3.864-2.027,7.725-4.061,11.605-6.054c0.657-0.342,0.786-0.525,0.151-1.06c-2.077-1.745-4.405-2.248-7.01-1.661
		C135.685,84.354,133.825,88.459,134.621,92.688z"/>
	<path fill="#007FC5" d="M168.092,96.85c0,1.999,0.007,3.997,0,5.996c-0.008,1.931-1.368,3.382-3.2,3.43
		c-1.798,0.048-3.207-1.279-3.367-3.18c-0.02-0.22-0.014-0.445-0.014-0.668c0-9.418-0.002-18.843,0-28.262
		c0.002-3.542,2.034-6.141,5.286-6.832c0.695-0.146,1.391-0.05,2.081-0.05c3.205-0.002,6.411-0.021,9.61,0.004
		c1.646,0.016,2.913,1.143,3.102,2.665c0.18,1.472-0.731,2.903-2.15,3.293c-0.42,0.115-0.877,0.126-1.318,0.126
		c-2.476,0.013-4.946,0-7.421,0.007c-1.71,0.005-2.599,0.871-2.603,2.561c-0.011,2.316,0.021,4.631-0.021,6.947
		c-0.014,0.679,0.2,0.84,0.852,0.838c3.205-0.033,6.408-0.031,9.612-0.007c1.509,0.007,2.615,0.904,2.983,2.319
		c0.327,1.28-0.269,2.656-1.435,3.342c-0.512,0.298-1.06,0.375-1.644,0.375c-3.173-0.011-6.346,0.015-9.519-0.022
		c-0.655-0.003-0.868,0.157-0.855,0.837C168.122,92.66,168.092,94.754,168.092,96.85z"/>
	<path fill="#8B8B8B" d="M191.512,32.824c10.804,0.91,20.583,4.173,28.138,12.416c4.315,4.704,6.756,10.344,8.021,16.548
		c0.498,2.457,0.74,4.945,0.887,7.44c0.143,2.472-1.746,4.083-3.893,3.36c-1.183-0.399-1.888-1.33-1.964-2.637
		c-0.206-3.613-0.64-7.188-1.761-10.648c-3.015-9.306-9.35-15.3-18.473-18.503c-3.669-1.289-7.459-1.971-11.347-2.093
		c-1.855-0.057-3.164-1.239-3.165-2.943c-0.008-1.685,1.339-2.933,3.178-2.94C191.259,32.824,191.384,32.824,191.512,32.824z"/>
	<path fill="#00AF1C" d="M8.979,85.396c0-4.917-0.001-9.831,0-14.748c0-2,1.272-3.41,3.045-3.393c1.8,0.017,3.017,1.393,3.017,3.419
		c0.002,8.945,0,17.891,0.002,26.835c0,2.228,1.034,3.273,3.235,3.273c2.41,0.005,4.822-0.02,7.234,0.013
		c1.513,0.016,2.667,1.022,2.859,2.412c0.2,1.452-0.606,2.754-1.998,3.15c-0.329,0.093-0.688,0.104-1.034,0.105
		c-3.33,0.008-6.658,0.007-9.988,0.002c-3.762,0-6.372-2.626-6.372-6.414C8.979,95.169,8.979,90.283,8.979,85.396z"/>
	<path fill="#00AF1C" d="M64.345,86.006c0-5.171-0.001-10.34,0-15.507c0-2.016,1.315-3.426,3.159-3.406
		c1.813,0.021,3.113,1.414,3.12,3.368c0.009,2.126,0.028,4.249-0.013,6.373c-0.013,0.681,0.111,0.966,0.865,0.906
		c0.979-0.071,1.966-0.03,2.947-0.013c1.445,0.03,2.502,1.125,2.508,2.559c0.005,1.428-1.055,2.54-2.495,2.577
		c-1.043,0.019-2.094,0.017-3.137-0.005c-0.442-0.009-0.687,0.042-0.687,0.597c0.021,5.645,0.017,11.291,0.003,16.937
		c0,0.449,0.137,0.606,0.594,0.597c1.014-0.029,2.031-0.025,3.047-0.007c1.522,0.031,2.638,1.093,2.675,2.522
		c0.041,1.414-0.943,2.59-2.419,2.65c-2.021,0.084-4.062,0.172-6.082-0.05c-2.388-0.26-4.078-2.201-4.086-4.591
		C64.338,96.347,64.345,91.177,64.345,86.006z"/>
	<path fill="#8B8B8B" d="M191.484,44.582c14.124,0.865,22.501,10.361,24.326,21.924c0.173,1.107,0.274,2.25,0.104,3.402
		c-0.243,1.689-1.485,2.864-3.046,2.767c-1.684-0.106-2.878-1.33-2.821-3.084c0.146-4.394-1.48-8.166-3.994-11.629
		c-2.91-4.02-7.011-6.088-11.75-7.09c-1.369-0.291-2.769-0.303-4.14-0.533c-1.262-0.213-2.083-1.1-2.295-2.339
		c-0.215-1.262,0.329-2.45,1.393-3.082C189.962,44.503,190.726,44.577,191.484,44.582z"/>
	<path fill="#007FC5" d="M192.618,92.061c0,3.775,0.008,7.546-0.004,11.322c-0.006,1.56-0.983,2.786-2.422,3.108
		c-1.497,0.334-2.933-0.338-3.585-1.678c-0.228-0.464-0.276-0.959-0.276-1.472c0.004-7.576,0-15.156,0.004-22.735
		c0.004-1.875,1.317-3.248,3.096-3.261c1.815-0.015,3.178,1.386,3.186,3.302C192.626,84.451,192.618,88.256,192.618,92.061z"/>
	<path fill="#8B8B8B" d="M204.097,72.168c0,0.575,0,0.956-0.002,1.334c-0.011,1.836-1.171,3.074-2.882,3.08
		c-1.692,0.007-2.949-1.239-2.974-3.04c-0.021-1.587-0.089-3.164-0.502-4.709c-1.283-4.816-4.76-7.252-9.707-6.661
		c-1.581,0.189-3.231-0.716-3.486-2.564c-0.218-1.583,0.884-3.029,2.636-3.234c7.036-0.829,14.029,2.243,16.284,11.102
		C203.873,69.073,204.147,70.7,204.097,72.168z"/>
	<path fill="#FF2A84" d="M162.95,116.398c-0.807,0.471-1.269,1.163-1.715,1.847c-0.368,0.564-0.815,1.056-1.312,1.492
		c-0.751,0.654-1.428,0.418-1.695-0.542c-0.097-0.352-0.061-0.743-0.302-1.06c-0.854,0.987-1.683,1.97-2.543,2.921
		c-0.389,0.429-0.844,0.771-1.505,0.551c-0.688-0.224-0.752-0.824-0.825-1.37c-0.214-1.568,0.718-2.697,1.6-3.811
		c0.509-0.645,1.164-1.15,1.909-1.539c0.972-0.511,1.241-0.454,1.796,0.496c0.284-0.032,0.207-0.355,0.387-0.48
		c0.245-0.167,0.499-0.324,0.792-0.211c0.311,0.122,0.339,0.429,0.359,0.72c0.023,0.391-0.123,0.742-0.268,1.093
		c-0.3,0.726-0.332,1.139-0.215,1.934c0.063,0.01,0.154,0.047,0.173,0.02c1.011-1.29,2.115-2.48,3.302-3.613
		c0.614-0.59,1.012-0.711,1.515,0.011c0.206,0.303,0.259,0.517,0.36,1.536c0.749-0.759,1.289-1.624,2.157-2.162
		c1.1-0.677,1.931-0.34,2.078,0.949c0.065,0.62,0.256,1.243,0.063,1.885c-0.079,0.267,0.085,0.519,0.293,0.651
		c0.309,0.2,0.467-0.109,0.593-0.296c0.854-1.253,2.031-2.229,2.929-3.44c0.398-0.532,0.697-1.131,0.751-1.819
		c0.025-0.372,0.15-0.693,0.587-0.745c0.411-0.049,0.638,0.219,0.806,0.541c0.61,1.163,1.049,2.371,0.821,3.879
		c0.686-0.432,0.984-0.985,1.383-1.445c0.841-0.979,1.912-1.767,2.446-2.996c0.085-0.203,0.268-0.402,0.52-0.321
		c0.35,0.11,0.572,0.373,0.703,0.724c0.197,0.534-0.093,1.067,0.027,1.715c0.641-0.694,1.25-1.31,1.813-1.968
		c0.394-0.459,0.86-0.713,1.448-0.814c0.665-0.114,1.086,0.206,1.219,0.778c0.194,0.835,0.129,1.679-0.275,2.496
		c0.455,0.276,0.658-0.174,0.873-0.418c0.842-0.943,1.601-1.976,2.604-2.755c0.811-0.631,1.62-1.362,2.799-1.011
		c1.057,0.313,1.84,2.417,1.455,3.766c-0.343,1.189-1.048,2.085-2.068,2.737c-0.576,0.373-1.158,0.817-1.914,0.355
		c-0.768-0.47-1.365-1.036-1.339-2.024c0.004-0.35,0-0.694,0-1.156c-0.772,0.566-1.384,1.2-1.968,1.86
		c-1.051,1.187-2.42,1.86-3.865,2.42c-0.268,0.105-0.503,0.105-0.701-0.094c-0.563-0.595-0.653-0.341-0.78,0.325
		c-0.355,1.86-0.805,3.707-1.214,5.557c-0.037,0.159-0.038,0.329-0.103,0.465c-0.297,0.578-0.469,1.317-1.237,1.433
		c-0.45,0.067-1.139-1.193-1.116-1.937c0.033-1.332,0.552-2.531,1.096-3.706c0.865-1.869,1.744-3.72,1.72-5.844
		c-0.004-0.118,0-0.24,0-0.528c-0.958,1.103-1.824,2.084-2.667,3.082c-0.887,1.048-1.971,1.859-3.093,2.621
		c-0.409,0.278-0.84,0.278-1.233-0.04c-0.313-0.256-0.72-0.49-0.645-0.974c0.069-0.433,0.354-0.75,0.796-0.851
		c0.503-0.118,1.122,0.267,1.476-0.459c0.461-0.932,0.623-2.096,0.268-3.468c-0.764,1.341-1.69,2.338-2.524,3.417
		c-0.482,0.62-0.973,1.236-1.445,1.87c-0.338,0.447-0.688,0.845-1.332,0.677c-0.651-0.173-1.018-0.643-1.171-1.252
		c-0.157-0.615-0.283-1.23-0.316-1.871c-0.025-0.482-0.168-0.766-0.753-0.342c-0.771,0.562-1.275,1.326-1.816,2.053
		c-0.49,0.661-1.065,1.231-1.585,1.856c-0.466,0.566-0.886,0.482-1.119-0.2c-0.263-0.761,0.009-1.434,0.412-2.06
		C162.828,117.182,163.05,116.889,162.95,116.398z M191.229,111.234c-1.824,0.503-2.514,2.736-2.219,4.045
		c0.112,0.512,0.323,0.843,0.901,0.615c1.187-0.466,2.008-2.675,1.377-3.798C191.127,111.802,191.313,111.554,191.229,111.234z
		 M180.685,115.943c0.504-0.263,0.964-0.502,1.533-0.302c0.233,0.079,0.42-0.127,0.559-0.297c0.639-0.754,1.094-1.612,1.326-2.577
		c0.044-0.181,0.083-0.415-0.092-0.525c-0.189-0.123-0.407-0.056-0.611,0.075C182.069,113.188,181.154,114.371,180.685,115.943z
		 M157.955,116.438c-1.517-0.146-3.691,1.841-3.735,3.364c-0.008,0.171,0.013,0.323,0.168,0.408
		c0.202,0.118,0.367-0.036,0.497-0.142C156.139,119.061,157.231,117.917,157.955,116.438z M177.479,123.648
		c0.579-1.34,0.891-2.503,0.79-3.751C177.734,121.021,177.207,122.142,177.479,123.648z"/>
	<path fill="#FF2A84" d="M203.475,109.516c-0.48,0.644-1.001,1.265-1.431,1.94c-0.784,1.232-1.758,2.303-2.748,3.354
		c-0.509,0.543-1.118,1.086-1.998,0.646c-0.718-0.363-1.099-1.246-0.869-2.204c0.229-0.972,0.538-1.926,0.861-3.073
		c-1.021,0.575-1.522,1.44-2.262,2.032c-0.354,0.276-0.686,1.033-1.128,0.603c-0.428-0.41,0.088-0.955,0.493-1.346
		c0.769-0.756,1.475-1.568,2.112-2.433c0.724-0.972,1.237-0.865,1.85,0.172c0.589,0.996,0.622,1.841-0.074,2.785
		c-0.303,0.414-0.408,0.979-0.597,1.482c-0.077,0.202-0.207,0.474-0.014,0.616c0.214,0.163,0.48,0.004,0.689-0.135
		c0.733-0.461,1.41-1.001,1.9-1.709c1.193-1.711,2.446-3.385,3.406-5.245c0.226-0.44,0.633-1.015,0.352-1.394
		c-0.318-0.43-0.774,0.178-1.13,0.323c-1.297,0.549-2.712,0.893-3.82,1.819c-0.37,0.312-0.497,0.091-0.647-0.149
		c-0.351-0.563-0.064-1.264,0.696-1.603c1.412-0.628,2.825-1.265,4.269-1.809c0.942-0.354,1.634-0.879,1.95-1.847
		c0.03-0.089,0.04-0.192,0.095-0.27c0.235-0.351,0.344-0.979,0.85-0.88c0.481,0.096,0.467,0.677,0.487,1.121
		c0.009,0.154,0.029,0.307,0.048,0.491c0.758-0.025,1.316-0.502,1.965-0.71c0.221-0.067,0.467-0.304,0.698-0.044
		c0.206,0.228,0.102,0.499-0.015,0.71c-0.289,0.533-0.256,1.212-1.331,1.166c-0.829-0.036-1.944,0.403-2.155,1.633
		c-0.05,0.303-0.19,0.622-0.381,0.86c-1.212,1.511-0.995,3.26-0.854,4.994c0.021,0.287,0.135,0.551,0.356,0.758
		c0.265,0.247,0.407,0.583,0.451,0.925c0.055,0.449,0.248,1.042-0.375,1.215c-0.545,0.151-0.737-0.38-0.924-0.773
		C203.653,112.283,203.561,110.936,203.475,109.516z"/>
	<path fill="#FF2A84" d="M144.242,109.001c-1.322,0.142-2.425,0.759-3.514,1.346c-1.232,0.664-2.61,1.188-3.246,2.609
		c-0.075,0.16-0.222,0.216-0.398,0.179c-0.255-0.063-0.381-0.279-0.366-0.497c0.042-0.572,0.185-1.058,0.708-1.46
		c3.438-2.639,7.459-3.741,11.61-4.526c0.433-0.084,0.822-0.132,1.034,0.368c0.161,0.365,0.253,0.749-0.035,1.068
		c-0.333,0.374-0.776,0.418-1.217,0.192c-1.075-0.553-2.085,0.063-3.118,0.177c-0.155,0.014-0.352,0.152-0.271,0.316
		c0.336,0.728-0.283,1.108-0.572,1.582c-0.813,1.317-1.331,2.756-1.914,4.174c-0.713,1.734-0.933,3.587-1.39,5.382
		c-0.224,0.865-0.22,1.801-0.109,2.718c0.05,0.416,0.181,0.94-0.417,1.115c-0.546,0.155-0.925-0.155-1.19-0.582
		c-0.543-0.878-0.411-1.892-0.231-2.778c0.472-2.335,1.131-4.639,2.224-6.771C142.614,112.083,143.236,110.469,144.242,109.001z"/>
	<path fill="#007FC5" d="M185.58,70.229c-0.022-1.973,1.476-3.521,3.421-3.547c2.03-0.025,3.595,1.471,3.617,3.459
		c0.024,1.966-1.572,3.584-3.528,3.579C187.152,73.715,185.596,72.168,185.58,70.229z"/>
	<path fill="#FF2C85" d="M214.23,108.339c0.589,1.083-0.129,1.75-0.646,2.427c-0.778,1.021-1.694,1.923-2.845,2.541
		c-1.285,0.688-2.813,0.053-3.217-1.343c-0.172-0.591,0.258-1.086,0.383-1.632c0.377-1.586,1.106-2.955,2.902-3.379
		c0.587-0.136,1.182-0.172,1.535,0.369c0.364,0.573-0.085,1.004-0.463,1.396c-0.89,0.927-1.776,1.861-2.68,2.776
		c-0.232,0.237-0.484,0.47-0.305,0.81c0.21,0.39,0.551,0.156,0.841,0.075c1.367-0.371,2.085-1.578,3.069-2.43
		C213.316,109.505,213.719,108.932,214.23,108.339z M211.073,108.062c-1.124,0.265-1.683,0.893-1.762,2.046
		C209.999,109.454,210.612,108.847,211.073,108.062z"/>
	<path fill="#FF2C85" d="M148.079,116.91c-0.765,0.869-1.526,1.743-2.297,2.604c-0.159,0.176-0.344,0.492-0.614,0.302
		c-0.259-0.176-0.166-0.531-0.077-0.793c0.064-0.204,0.203-0.399,0.366-0.539c0.878-0.784,1.594-1.706,2.316-2.628
		c0.714-0.913,1.222-0.813,1.792,0.169c0.593,1.021,0.669,1.914-0.08,2.868c-0.268,0.343-0.419,0.772-0.485,1.219
		c-0.042,0.291-0.379,0.636-0.034,0.849c0.278,0.167,0.592-0.13,0.857-0.299c0.999-0.652,1.741-1.557,2.396-2.533
		c0.104-0.155,0.159-0.393,0.393-0.329c0.209,0.055,0.203,0.279,0.227,0.47c0.037,0.3-0.026,0.558-0.178,0.813
		c-0.677,1.154-1.625,2.09-2.586,2.993c-0.447,0.422-1.069,0.598-1.655,0.178c-0.644-0.454-0.969-1.106-0.819-1.891
		c0.146-0.743,0.412-1.457,0.606-2.189c0.089-0.325,0.331-0.621,0.208-0.99C148.304,117.093,148.191,117.003,148.079,116.91z"/>
	<path fill="#BBBBBA" d="M49.626,110.837c0.579-0.031,1.067,0.162,1.472,0.556c0.178,0.17,0.42,0.344,0.153,0.628
		c-0.204,0.218-0.396,0.41-0.714,0.138c-0.383-0.319-0.815-0.481-1.315-0.246c-0.234,0.112-0.455,0.23-0.49,0.526
		c-0.046,0.325,0.101,0.547,0.381,0.688c0.503,0.263,1.029,0.491,1.517,0.781c0.849,0.504,1.219,1.367,0.953,2.248
		c-0.271,0.892-0.919,1.323-1.833,1.354c-0.96,0.032-1.948-0.589-2.223-1.343c-0.083-0.229-0.052-0.374,0.153-0.461
		c0.281-0.122,0.581-0.155,0.753,0.15c0.244,0.437,0.647,0.604,1.089,0.673c0.472,0.077,0.914-0.073,1.085-0.553
		c0.162-0.438,0.109-0.908-0.331-1.183c-0.451-0.284-0.948-0.494-1.426-0.743c-0.89-0.474-1.274-1.172-1.044-2.002
		C48.059,111.139,48.8,110.905,49.626,110.837z"/>
	<path fill="#B9B9B8" d="M37.686,113.771c0-0.811,0-1.568,0.003-2.328c0-0.29-0.012-0.601,0.422-0.576
		c0.364,0.016,0.366,0.286,0.366,0.542c0.002,1.78,0.002,3.554,0,5.329c-0.001,0.213,0.046,0.477-0.248,0.546
		c-0.219,0.051-0.447,0.081-0.531-0.221c-0.105-0.36-0.261-0.112-0.4-0.026c-1.188,0.698-1.998,0.618-2.674-0.262
		c-0.691-0.896-0.632-2.245,0.133-3.059c0.74-0.782,1.585-0.782,2.706,0.008C37.487,113.74,37.521,113.736,37.686,113.771z
		 M37.714,115.313c-0.002-0.86-0.533-1.432-1.31-1.416c-0.732,0.018-1.371,0.688-1.365,1.432c0.007,0.743,0.66,1.409,1.383,1.414
		C37.198,116.752,37.72,116.177,37.714,115.313z"/>
	<path fill="#B9B9B8" d="M59.388,115.608c-0.287,0-0.572-0.02-0.859,0.007c-0.231,0.02-0.586-0.149-0.678,0.122
		c-0.117,0.338,0.19,0.581,0.449,0.753c0.564,0.373,1.147,0.357,1.676-0.051c0.277-0.216,0.501-0.248,0.73,0.026
		c0.321,0.379-0.091,0.501-0.274,0.642c-0.917,0.738-2.416,0.507-3.123-0.466c-0.707-0.97-0.425-2.497,0.591-3.197
		c0.93-0.639,2.225-0.342,2.9,0.673c0.256,0.383,0.444,0.826,0.264,1.251c-0.188,0.441-0.664,0.186-1.016,0.234
		C59.832,115.633,59.608,115.608,59.388,115.608z M59.046,114.91c0.297-0.256,0.949,0.217,0.991-0.307
		c0.035-0.449-0.514-0.723-1.054-0.711c-0.503,0.012-1.008,0.292-0.979,0.692C58.053,115.149,58.678,114.684,59.046,114.91z"/>
	<path fill="#B9B9B8" d="M25.397,115.608c0.51,1.143,1.221,1.414,2.159,0.868c0.315-0.18,0.557-0.342,0.799,0.004
		c0.307,0.439-0.172,0.545-0.375,0.692c-0.969,0.692-2.459,0.376-3.099-0.625c-0.671-1.054-0.259-2.626,0.835-3.215
		c1.032-0.551,2.349-0.068,2.87,1.051c0.422,0.907,0.243,1.219-0.73,1.221C27.071,115.612,26.283,115.608,25.397,115.608z
		 M26.642,114.882c0.354-0.177,0.993,0.231,1.034-0.278c0.031-0.445-0.517-0.723-1.058-0.711c-0.497,0.014-1.014,0.292-0.975,0.693
		C25.691,115.149,26.313,114.684,26.642,114.882z"/>
	<path fill="#B9B9B8" d="M17.695,115.608c-0.283,0-0.572-0.023-0.852,0.007c-0.238,0.02-0.586-0.15-0.684,0.123
		c-0.117,0.337,0.194,0.58,0.456,0.752c0.561,0.373,1.143,0.356,1.675-0.051c0.28-0.22,0.498-0.245,0.726,0.026
		c0.319,0.379-0.093,0.501-0.272,0.646c-0.921,0.735-2.412,0.503-3.122-0.471c-0.708-0.969-0.427-2.5,0.588-3.2
		c0.934-0.639,2.232-0.338,2.902,0.679c0.253,0.382,0.447,0.824,0.266,1.25c-0.192,0.438-0.669,0.185-1.019,0.233
		C18.139,115.631,17.917,115.608,17.695,115.608z M17.403,114.907c0.253-0.297,0.899,0.268,0.941-0.329
		c0.029-0.404-0.485-0.677-0.986-0.686c-0.542-0.012-1.084,0.271-1.046,0.719C16.358,115.102,16.997,114.708,17.403,114.907z"/>
	<path fill="#BBBBBA" d="M39.582,115.299c0.013-1.223,0.957-2.173,2.147-2.168c1.13,0.008,2.208,1.054,2.223,2.16
		c0.018,1.103-1.062,2.211-2.161,2.219C40.548,117.521,39.573,116.54,39.582,115.299z M43.036,115.291
		c-0.01-0.721-0.609-1.365-1.286-1.39c-0.694-0.023-1.376,0.702-1.356,1.443c0.021,0.714,0.657,1.393,1.317,1.393
		C42.414,116.742,43.046,116.057,43.036,115.291z"/>
	<path fill="#BBBBBA" d="M68.407,113.131c1.126,0.014,2.197,1.083,2.197,2.189c0,1.111-1.087,2.197-2.189,2.189
		c-1.243-0.008-2.196-0.987-2.179-2.237C66.254,114.063,67.219,113.111,68.407,113.131z M67.046,115.301
		c-0.013,0.703,0.608,1.406,1.266,1.437c0.703,0.037,1.365-0.643,1.376-1.401c0.009-0.758-0.627-1.443-1.337-1.434
		C67.689,113.91,67.057,114.587,67.046,115.301z"/>
	<path fill="#BDBDBC" d="M12.957,114.643c0-0.631-0.03-1.265,0.011-1.894c0.035-0.578-0.165-0.813-0.751-0.765
		c-0.366,0.029-0.81,0.092-0.77-0.526c0.039-0.561,0.466-0.41,0.783-0.418c0.819-0.016,1.641-0.007,2.463-0.007
		c0.35,0,0.717-0.041,0.709,0.502c-0.009,0.479-0.338,0.495-0.655,0.449c-0.76-0.105-0.892,0.269-0.873,0.933
		c0.046,1.231,0.013,2.465,0.013,3.699c0,0.35,0.046,0.726-0.503,0.701c-0.49-0.023-0.42-0.377-0.424-0.681
		C12.955,115.972,12.957,115.307,12.957,114.643z"/>
	<path fill="#BDBDBC" d="M29.704,115.313c0-0.379,0.009-0.759-0.002-1.14c-0.026-0.718,0.112-1.182,0.939-0.648
		c0.318,0.205,0.442-0.136,0.643-0.225c1.014-0.461,1.964,0.09,2.01,1.208c0.027,0.727,0.002,1.455,0.007,2.183
		c0,0.342-0.026,0.641-0.488,0.626c-0.49-0.007-0.442-0.347-0.446-0.661c-0.002-0.574-0.007-1.142,0-1.714
		c0.003-0.517-0.1-1.021-0.722-1.006c-0.542,0.019-0.954,0.363-0.991,0.962c-0.039,0.566-0.018,1.135-0.024,1.708
		c0,0.344,0.054,0.728-0.492,0.711c-0.495-0.015-0.433-0.363-0.435-0.673C29.695,116.2,29.704,115.757,29.704,115.313z"/>
	<path fill="#BDBDBC" d="M61.892,115.283c0-0.507-0.002-1.01,0-1.52c0-0.479,0.517-0.575,0.629-0.409
		c0.467,0.688,0.723,0.106,1.058-0.085c0.801-0.451,1.84,0.171,1.889,1.163c0.037,0.758,0.004,1.516,0.009,2.278
		c0.006,0.352-0.044,0.629-0.503,0.606c-0.416-0.015-0.429-0.287-0.429-0.584c0.001-0.574-0.005-1.142,0.001-1.71
		c0.008-0.507-0.03-1.038-0.642-1.085c-0.627-0.048-0.996,0.393-1.062,0.991c-0.062,0.563-0.014,1.141-0.026,1.707
		c-0.003,0.305,0.072,0.662-0.423,0.681c-0.547,0.021-0.503-0.352-0.503-0.708c-0.003-0.439-0.003-0.884-0.003-1.327
		C61.89,115.283,61.89,115.283,61.892,115.283z"/>
	<path fill="#BDBDBC" d="M55.957,114.91c0,0.351,0.028,0.699-0.007,1.046c-0.09,0.889-0.832,1.54-1.743,1.554
		c-0.96,0.022-1.753-0.621-1.827-1.557c-0.054-0.692-0.011-1.395-0.019-2.091c-0.003-0.329,0.093-0.545,0.479-0.544
		c0.399,0.008,0.455,0.248,0.455,0.566c-0.007,0.602,0.015,1.205-0.007,1.809c-0.021,0.617,0.257,1.014,0.856,1.018
		c0.621,0.009,0.868-0.443,0.88-1.021c0.009-0.601,0.007-1.203,0.002-1.805c-0.002-0.319,0.057-0.562,0.455-0.566
		c0.388-0.001,0.483,0.215,0.477,0.548C55.952,114.214,55.958,114.563,55.957,114.91z"/>
	<path fill="#BBBBBA" d="M72.47,113.131c0.339-0.033,0.629,0.093,0.897,0.26c0.229,0.143,0.416,0.32,0.216,0.613
		c-0.148,0.217-0.327,0.263-0.558,0.098c-0.341-0.246-0.779-0.383-0.955,0.083c-0.167,0.434,0.355,0.511,0.636,0.668
		c0.47,0.261,1.006,0.471,1.128,1.057c0.131,0.651-0.082,1.195-0.73,1.477c-0.655,0.281-1.234,0.122-1.728-0.374
		c-0.109-0.111-0.216-0.248-0.096-0.412c0.116-0.16,0.289-0.266,0.488-0.19c0.174,0.066,0.318,0.208,0.494,0.276
		c0.305,0.123,0.586,0.009,0.747-0.239c0.212-0.329-0.035-0.521-0.3-0.668c-0.307-0.167-0.631-0.304-0.916-0.49
		c-0.458-0.302-0.729-0.709-0.544-1.284C71.444,113.412,71.894,113.175,72.47,113.131z"/>
	<path fill="#BDBDBC" d="M21.324,116.184c0,0.821,0,1.646,0.003,2.469c0,0.312-0.033,0.566-0.446,0.574
		c-0.381,0-0.484-0.205-0.484-0.537c0.002-1.615,0.002-3.23,0-4.844c0-0.343,0.12-0.531,0.497-0.523
		c0.42,0.008,0.429,0.282,0.429,0.586C21.324,114.666,21.324,115.423,21.324,116.184z"/>
	<path fill="#BDBDBC" d="M75.765,113.363c0,0.538-0.005,1.072,0,1.608c0.002,0.335-0.005,0.647-0.479,0.633
		c-0.396-0.012-0.447-0.26-0.447-0.571c0.003-1.139,0.003-2.273,0-3.413c0-0.304,0.028-0.565,0.438-0.585
		c0.465-0.019,0.492,0.279,0.488,0.62C75.759,112.224,75.765,112.794,75.765,113.363z"/>
	<path fill="#BDBDBC" d="M23.599,115.354c0,0.503-0.004,1.009,0,1.519c0.005,0.32-0.155,0.45-0.469,0.446
		c-0.311,0-0.452-0.151-0.452-0.465c0.002-1.011,0.002-2.024,0-3.034c-0.005-0.295,0.091-0.478,0.424-0.494
		c0.377-0.017,0.508,0.16,0.503,0.512C23.595,114.34,23.599,114.847,23.599,115.354z"/>
	<path fill="#B9B9B8" d="M10.478,115.893c0,0.633,0.002,1.264,0,1.899c0,0.235-0.041,0.443-0.344,0.462
		c-0.337,0.021-0.444-0.168-0.444-0.466c0-1.266,0-2.53,0-3.797c0-0.304,0.109-0.483,0.446-0.458
		c0.303,0.017,0.342,0.227,0.342,0.462C10.48,114.628,10.478,115.261,10.478,115.893z"/>
	<path fill="#BBBBBA" d="M64.14,112.36c-0.451-0.145-1.063-0.533-1.751-0.024c-0.192,0.14-0.37-0.189-0.246-0.433
		c0.275-0.538,0.7-0.806,1.323-0.615c0.46,0.141,0.865,0.433,1.398,0.015c0.316-0.248,0.503,0.11,0.405,0.447
		C65.137,112.207,64.787,112.394,64.14,112.36z"/>
	<path fill="#BDBDBC" d="M20.882,112.749c-0.374-0.056-0.655-0.279-0.655-0.663c-0.005-0.385,0.271-0.638,0.667-0.654
		c0.427-0.022,0.623,0.25,0.623,0.651C21.52,112.486,21.324,112.733,20.882,112.749z"/>
	<path fill="#B9B9B8" d="M23.803,111.776c-0.013,0.503-0.185,0.783-0.622,0.768c-0.398-0.014-0.673-0.265-0.675-0.657
		c-0.003-0.348,0.242-0.604,0.596-0.631C23.506,111.228,23.743,111.465,23.803,111.776z"/>
	<path fill="#BDBDBC" d="M10.047,111.618c0.398,0.015,0.543,0.306,0.563,0.629c0.022,0.34-0.188,0.624-0.54,0.657
		c-0.403,0.039-0.533-0.263-0.542-0.611C9.518,111.938,9.655,111.682,10.047,111.618z"/>
	<path fill="#BDBDBC" d="M75.92,116.889c-0.101,0.315-0.252,0.612-0.624,0.592c-0.392-0.025-0.495-0.333-0.479-0.681
		c0.019-0.352,0.165-0.641,0.564-0.585C75.726,116.26,75.885,116.54,75.92,116.889z"/>
	<path fill="#FFF3F7" d="M211.073,108.062c-0.461,0.784-1.074,1.391-1.762,2.046C209.391,108.954,209.949,108.327,211.073,108.062z"
		/>
</g>
</svg>
